<svg viewBox="0 0 124 113" fill="none" xmlns="http://www.w3.org/2000/svg">
<path d="M18.1434 96.7142C28.74 100.93 43.2532 104.246 58.6791 105.976C74.105 107.706 89.2628 107.717 101.015 106.008C112.768 104.299 120.215 100.999 121.816 96.7924C123.417 92.5858 119.049 87.7941 109.616 83.409C100.184 79.0239 86.4079 75.3811 71.1405 73.2346C55.8731 71.0881 40.2828 70.6021 27.5962 71.8774C14.9097 73.1526 6.09819 76.0914 2.98533 80.0854C-0.127521 84.0795 2.69661 88.8231 10.8732 93.3345" stroke="black" stroke-linecap="round"/>
<path d="M85.5568 22.814L100.799 23.9244L101.91 8.68218L96.6861 8.30167L96.2493 14.2986C87.8816 5.24543 76.0989 0 63.5907 0C39.0532 0 19.0908 19.9627 19.0908 44.4999C19.0908 69.0371 39.0536 88.9998 63.5909 88.9998C78.4283 88.9998 92.2455 81.6193 100.552 69.2566L96.2043 66.3358C88.8729 77.2479 76.681 83.7624 63.5909 83.7624C41.9414 83.7626 24.3283 66.1493 24.3283 44.4999C24.3283 22.8505 41.9412 5.23743 63.5907 5.23743C74.7244 5.23743 85.2064 9.95268 92.6026 18.0758L85.9373 17.5903L85.5568 22.814Z" fill="black"/>
<path d="M41.7328 49.4182C41.7328 47.7345 43.4167 46.6418 45.8091 45.4305C48.5559 44.0424 50.4758 42.4473 50.4758 39.0208C50.4758 34.9741 47.8764 32.4635 43.2097 32.4635C39.1925 32.4635 36.2093 34.3834 34.9096 35.8603L37.8339 38.9914C38.897 37.8986 40.6695 36.658 42.5599 36.658C44.0957 36.658 45.1 37.485 45.1 39.0801C45.1 41.5611 42.6484 42.6244 40.1378 43.7468C35.8844 45.6668 34.8505 48.2071 34.8505 53.6715H50.5056V49.4182H41.7328Z" fill="black"/>
<path d="M65.6287 45.017V32.6702H62.3796L52.6321 45.017V49.2409H60.9026V53.642H65.6287V49.2409H68.2281V45.017H65.6287ZM61.4344 45.0168H57.3286L61.4344 39.7591V45.0168Z" fill="black"/>
<path d="M81.0175 37.8687C78.7432 37.8687 76.7641 38.932 75.6416 40.7635V32.1089H70.9155V53.6716H75.6416V44.7808C76.2326 43.1267 77.7981 42.0338 78.9203 42.0338C80.2791 42.0338 81.1651 42.9495 81.1651 44.9581V53.6717H85.8913V43.747C85.8911 41.059 85.1821 37.8687 81.0175 37.8687Z" fill="black"/>
</svg>
