<svg viewBox="0 0 125 108" fill="none" xmlns="http://www.w3.org/2000/svg">
<path d="M114.799 81.742C122.246 76.8029 124.253 71.9795 120.404 68.2693C116.555 64.5591 107.146 62.2457 94.1208 61.8076C81.0958 61.3696 65.4517 62.8402 50.4234 65.9155C35.3951 68.9909 22.1321 73.4356 13.3768 78.3307C4.62152 83.2258 1.04364 88.1969 3.383 92.216C5.72235 96.235 13.8 98.9948 25.9457 99.9245C38.0914 100.854 53.3762 99.8828 68.6394 97.2111C83.9026 94.5394 97.9769 90.3718 107.952 85.5701" stroke="black" stroke-linecap="round"/>
<g clip-path="url(#clip0_3255_114)">
<path d="M53.4766 54.4414H50.4688C47.5661 54.4414 45.2051 56.8024 45.2051 59.7051V71.7363C45.2051 74.639 47.5661 77 50.4688 77H53.4766C56.3792 77 58.7402 74.639 58.7402 71.7363V59.7051C58.7402 56.8024 56.3792 54.4414 53.4766 54.4414ZM54.2285 71.7363C54.2285 72.1511 53.8913 72.4883 53.4766 72.4883H50.4688C50.054 72.4883 49.7168 72.1511 49.7168 71.7363V59.7051C49.7168 59.2903 50.054 58.9531 50.4688 58.9531H53.4766C53.8913 58.9531 54.2285 59.2903 54.2285 59.7051V71.7363Z" fill="black"/>
<path d="M35.4297 72.4883H33.1738V56.6973C33.1738 55.4513 32.164 54.4414 30.918 54.4414H26.4062C25.1602 54.4414 24.1504 55.4513 24.1504 56.6973C24.1504 57.9433 25.1602 58.9531 26.4062 58.9531H28.6621V72.4883H26.4062C25.1602 72.4883 24.1504 73.4981 24.1504 74.7441C24.1504 75.9902 25.1602 77 26.4062 77H35.4297C36.6757 77 37.6855 75.9902 37.6855 74.7441C37.6855 73.4981 36.6757 72.4883 35.4297 72.4883Z" fill="black"/>
<path d="M95.5859 54.4414H92.5781C89.6755 54.4414 87.3145 56.8024 87.3145 59.7051V71.7363C87.3145 74.639 89.6755 77 92.5781 77H95.5859C98.4886 77 100.85 74.639 100.85 71.7363V59.7051C100.85 56.8024 98.4886 54.4414 95.5859 54.4414ZM96.3379 71.7363C96.3379 72.1511 96.0007 72.4883 95.5859 72.4883H92.5781C92.1634 72.4883 91.8262 72.1511 91.8262 71.7363V59.7051C91.8262 59.2903 92.1634 58.9531 92.5781 58.9531H95.5859C96.0007 58.9531 96.3379 59.2903 96.3379 59.7051V71.7363Z" fill="black"/>
<path d="M77.5391 72.4883H75.2832V56.6973C75.2832 55.4513 74.2734 54.4414 73.0273 54.4414H68.5156C67.2696 54.4414 66.2598 55.4513 66.2598 56.6973C66.2598 57.9433 67.2696 58.9531 68.5156 58.9531H70.7715V72.4883H68.5156C67.2696 72.4883 66.2598 73.4981 66.2598 74.7441C66.2598 75.9902 67.2696 77 68.5156 77H77.5391C78.7851 77 79.7949 75.9902 79.7949 74.7441C79.7949 73.4981 78.7851 72.4883 77.5391 72.4883Z" fill="black"/>
<path d="M53.4766 27.2207H50.4688C47.5661 27.2207 45.2051 29.5817 45.2051 32.4844V44.5156C45.2051 47.4183 47.5661 49.7793 50.4688 49.7793H53.4766C56.3792 49.7793 58.7402 47.4183 58.7402 44.5156V32.4844C58.7402 29.5817 56.3792 27.2207 53.4766 27.2207ZM54.2285 44.5156C54.2285 44.9304 53.8913 45.2676 53.4766 45.2676H50.4688C50.054 45.2676 49.7168 44.9304 49.7168 44.5156V32.4844C49.7168 32.0696 50.054 31.7324 50.4688 31.7324H53.4766C53.8913 31.7324 54.2285 32.0696 54.2285 32.4844V44.5156Z" fill="black"/>
<path d="M35.4297 45.2676H33.1738V29.4766C33.1738 28.2306 32.164 27.2207 30.918 27.2207H26.4062C25.1602 27.2207 24.1504 28.2306 24.1504 29.4766C24.1504 30.7226 25.1602 31.7324 26.4062 31.7324H28.6621V45.2676H26.4062C25.1602 45.2676 24.1504 46.2774 24.1504 47.5234C24.1504 48.7694 25.1602 49.7793 26.4062 49.7793H35.4297C36.6757 49.7793 37.6855 48.7694 37.6855 47.5234C37.6855 46.2774 36.6757 45.2676 35.4297 45.2676Z" fill="black"/>
<path d="M74.5312 27.2207H71.5234C68.6208 27.2207 66.2598 29.5817 66.2598 32.4844V44.5156C66.2598 47.4183 68.6208 49.7793 71.5234 49.7793H74.5312C77.4339 49.7793 79.7949 47.4183 79.7949 44.5156V32.4844C79.7949 29.5817 77.4339 27.2207 74.5312 27.2207ZM75.2832 44.5156C75.2832 44.9304 74.946 45.2676 74.5312 45.2676H71.5234C71.1087 45.2676 70.7715 44.9304 70.7715 44.5156V32.4844C70.7715 32.0696 71.1087 31.7324 71.5234 31.7324H74.5312C74.946 31.7324 75.2832 32.0696 75.2832 32.4844V44.5156Z" fill="black"/>
<path d="M98.5938 45.2676H96.3379V29.4766C96.3379 28.2306 95.328 27.2207 94.082 27.2207H89.5703C88.3243 27.2207 87.3145 28.2306 87.3145 29.4766C87.3145 30.7226 88.3243 31.7324 89.5703 31.7324H91.8262V45.2676H89.5703C88.3243 45.2676 87.3145 46.2774 87.3145 47.5234C87.3145 48.7694 88.3243 49.7793 89.5703 49.7793H98.5938C99.8398 49.7793 100.85 48.7694 100.85 47.5234C100.85 46.2774 99.8398 45.2676 98.5938 45.2676Z" fill="black"/>
<path d="M32.4219 0H29.4141C26.5114 0 24.1504 2.36102 24.1504 5.26367V17.2949C24.1504 20.1976 26.5114 22.5586 29.4141 22.5586H32.4219C35.3245 22.5586 37.6855 20.1976 37.6855 17.2949V5.26367C37.6855 2.36102 35.3245 0 32.4219 0ZM33.1738 17.2949C33.1738 17.7097 32.8366 18.0469 32.4219 18.0469H29.4141C28.9993 18.0469 28.6621 17.7097 28.6621 17.2949V5.26367C28.6621 4.84892 28.9993 4.51172 29.4141 4.51172H32.4219C32.8366 4.51172 33.1738 4.84892 33.1738 5.26367V17.2949Z" fill="black"/>
<path d="M56.4844 18.0469H54.2285V2.25586C54.2285 1.00985 53.2187 0 51.9727 0H47.4609C46.2149 0 45.2051 1.00985 45.2051 2.25586C45.2051 3.50187 46.2149 4.51172 47.4609 4.51172H49.7168V18.0469H47.4609C46.2149 18.0469 45.2051 19.0567 45.2051 20.3027C45.2051 21.5487 46.2149 22.5586 47.4609 22.5586H56.4844C57.7304 22.5586 58.7402 21.5487 58.7402 20.3027C58.7402 19.0567 57.7304 18.0469 56.4844 18.0469Z" fill="black"/>
<path d="M95.5859 0H92.5781C89.6755 0 87.3145 2.36102 87.3145 5.26367V17.2949C87.3145 20.1976 89.6755 22.5586 92.5781 22.5586H95.5859C98.4886 22.5586 100.85 20.1976 100.85 17.2949V5.26367C100.85 2.36102 98.4886 0 95.5859 0ZM96.3379 17.2949C96.3379 17.7097 96.0007 18.0469 95.5859 18.0469H92.5781C92.1634 18.0469 91.8262 17.7097 91.8262 17.2949V5.26367C91.8262 4.84892 92.1634 4.51172 92.5781 4.51172H95.5859C96.0007 4.51172 96.3379 4.84892 96.3379 5.26367V17.2949Z" fill="black"/>
<path d="M77.5391 18.0469H75.2832V2.25586C75.2832 1.00985 74.2734 0 73.0273 0H68.5156C67.2696 0 66.2598 1.00985 66.2598 2.25586C66.2598 3.50187 67.2696 4.51172 68.5156 4.51172H70.7715V18.0469H68.5156C67.2696 18.0469 66.2598 19.0567 66.2598 20.3027C66.2598 21.5487 67.2696 22.5586 68.5156 22.5586H77.5391C78.7851 22.5586 79.7949 21.5487 79.7949 20.3027C79.7949 19.0567 78.7851 18.0469 77.5391 18.0469Z" fill="black"/>
</g>
<defs>
<clipPath id="clip0_3255_114">
<rect width="77" height="77" fill="white" transform="translate(24)"/>
</clipPath>
</defs>
</svg>
