<svg viewBox="0 0 124 97" fill="none" xmlns="http://www.w3.org/2000/svg">
<path d="M3.00847 74.7788C-0.781461 79.2627 1.34908 83.6145 8.95915 86.9334C16.5692 90.2523 29.0762 92.2842 43.8916 92.6088C58.707 92.9333 74.6966 91.5255 88.5511 88.6767C102.406 85.828 113.064 81.7564 118.321 77.3046C123.578 72.8529 123.031 68.3617 116.793 64.7607C110.555 61.1597 99.1032 58.7246 84.8083 57.9592C70.5135 57.1939 54.4697 58.157 39.9975 60.6491C25.5253 63.1413 13.7326 66.9717 7.06015 71.3477" stroke="black" stroke-linecap="round"/>
<g clip-path="url(#clip0_3294_149)">
<path d="M84.377 18.8229V14.685C84.377 11.2313 81.5873 8.42188 78.1582 8.42188H26.2188C22.7897 8.42188 20 11.2315 20 14.685V21.0648C20 24.2392 22.3573 26.8675 25.4012 27.2721C24.9981 28.6095 25.0942 29.1617 25.0942 33.8936C25.0942 35.6452 25.7203 37.2518 26.758 38.4998C25.7203 39.7478 25.0942 41.3543 25.0942 43.1061C25.0942 47.7806 24.9813 48.44 25.4483 49.8755C22.3258 50.6397 20 53.4786 20 56.8562V61.3938C20 65.3553 23.1988 68.5781 27.1306 68.5781H54.2779C59.8637 75.2986 68.2333 79.5781 77.574 79.5781C94.3509 79.5781 108 65.7767 108 48.8125C108 34.2122 97.8898 21.9555 84.377 18.8229ZM26.2188 22.1719C25.6329 22.1719 25.1562 21.6752 25.1562 21.065V14.685C25.1562 14.0748 25.6329 13.5781 26.2188 13.5781H78.1582C78.7441 13.5781 79.2207 14.0748 79.2207 14.685V18.0922C73.0968 17.7605 67.3052 19.2804 62.3696 22.1717C61.0157 22.1719 29.5499 22.1719 26.2188 22.1719ZM47.1607 49.6719H32.2248C31.1361 49.6719 30.2505 48.7621 30.2505 47.6438V43.1063C30.2505 41.9879 31.1361 41.0781 32.2248 41.0781H48.1225C47.4156 43.8281 47.0798 46.7062 47.1607 49.6719ZM32.2246 35.9219C31.136 35.9219 30.2503 35.0121 30.2503 33.8937V29.3563C30.2503 28.2379 31.136 27.3281 32.2246 27.3281H55.8187C53.411 29.8205 51.4175 32.7231 49.9516 35.9219H32.2246ZM27.1306 63.4219C26.0419 63.4219 25.1562 62.5121 25.1562 61.3938V56.8562C25.1562 55.7379 26.0419 54.8281 27.1306 54.8281H47.7339C48.3343 57.878 49.3807 60.7671 50.8033 63.4219H27.1306ZM77.5742 74.4219C63.6404 74.4219 52.3046 62.9336 52.3046 48.8125C52.3046 34.6914 63.6406 23.2031 77.5742 23.2031C91.5077 23.2031 102.844 34.6914 102.844 48.8125C102.844 62.9336 91.5077 74.4219 77.5742 74.4219Z" fill="black"/>
<path d="M82.0182 46.2311C81.626 46.0909 81.2271 45.9453 80.8273 45.7957V38.2685C82.1891 38.8547 82.3421 39.5878 83.6638 39.5878C86.0014 39.5878 87.1166 36.7271 85.4296 35.1369C85.4545 35.1098 83.7478 33.4952 80.8273 32.889V31.625C80.8273 30.2012 79.673 29.0469 78.2492 29.0469C76.8254 29.0469 75.6711 30.2012 75.6711 31.625V33.067C69.0166 34.8803 67.5596 43.5169 72.0598 47.0898C73.0034 47.8388 74.1483 48.5258 75.6711 49.2375V59.3878C74.685 59.2185 73.9008 58.843 72.6911 58.042C71.504 57.256 69.9041 57.581 69.1182 58.7684C68.332 59.9555 68.6572 61.5551 69.8445 62.3413C72.0517 63.8028 73.6682 64.3784 75.6712 64.5784V66C75.6712 67.4238 76.8256 68.5781 78.2494 68.5781C79.6732 68.5781 80.8275 67.4238 80.8275 66V64.3323C89.5159 62.0228 91.1084 49.4833 82.0182 46.2311ZM75.6712 43.3489C75.5296 43.2506 75.3925 43.1518 75.2661 43.0514C74.3428 42.3184 74.3619 40.0754 75.6712 38.7893V43.3489ZM80.8275 58.7458V51.3145C84.0709 52.8782 83.3224 57.0819 80.8275 58.7458Z" fill="black"/>
</g>
<defs>
<clipPath id="clip0_3294_149">
<rect width="88" height="88" fill="white" transform="translate(20)"/>
</clipPath>
</defs>
</svg>
