<svg viewBox="0 0 126 105" fill="none" xmlns="http://www.w3.org/2000/svg">
<path d="M112.627 75.7886C104.358 70.5822 91.4731 65.6188 76.6379 61.9256C61.8027 58.2324 46.1533 56.0923 32.9287 55.9481C19.7041 55.8039 9.91668 57.6667 5.59207 61.1509C1.26747 64.6351 2.73678 69.4741 9.6959 74.6662C16.655 79.8584 28.5712 85.0063 42.9782 89.0445C57.3851 93.0826 73.18 95.7019 87.0937 96.3603C101.007 97.0186 111.975 95.6656 117.726 92.5813C123.477 89.4969 123.572 84.9173 117.991 79.7903" stroke="black" stroke-linecap="round"/>
<path d="M107.281 48.5573L102.485 9.0019C102.25 7.0797 101.262 5.3294 99.7373 4.135C98.213 2.94061 96.2771 2.39967 94.3543 2.63088L33.7054 9.98537C31.8726 10.2107 30.1929 11.1207 29.0031 12.5328C27.8134 13.945 27.2017 15.7548 27.2907 17.5992C26.1879 18.2421 25.2729 19.1627 24.6366 20.2693C24.0003 21.3759 23.665 22.6298 23.6641 23.9063V63.75C23.6662 65.6867 24.4365 67.5434 25.8059 68.9128C27.1754 70.2823 29.0321 71.0526 30.9688 71.0547H56.0429C56.0792 71.3399 56.1767 71.6138 56.3288 71.8577C56.4809 72.1016 56.684 72.3097 56.9241 72.4677L61.001 75.1492L62.7222 79.7146C62.8713 80.1078 63.1408 80.4439 63.4921 80.675C63.8434 80.9062 64.2588 81.0205 64.6789 81.0017L69.5526 80.7753L73.628 83.4561C73.9794 83.6873 74.395 83.8013 74.8153 83.7818C75.2355 83.7623 75.6388 83.6103 75.9673 83.3475L79.7773 80.3001L84.6509 80.0738C85.0712 80.0543 85.4744 79.9023 85.803 79.6395C86.1315 79.3767 86.3684 79.0166 86.4797 78.6109L87.7705 73.9055L91.3342 71.0547H92.0625C93.9992 71.0526 95.8559 70.2823 97.2253 68.9128C98.5947 67.5434 99.365 65.6867 99.3672 63.75V56.8755L100.911 56.6881C102.834 56.4545 104.586 55.4668 105.78 53.942C106.975 52.4172 107.515 50.4803 107.282 48.5573H107.281ZM27.6484 31.211H95.3828V37.8516H27.6484V31.211ZM95.3828 27.2266H27.6484V23.9063C27.6494 23.026 27.9996 22.182 28.6221 21.5596C29.2445 20.9371 30.0885 20.587 30.9688 20.586H92.0625C92.9428 20.587 93.7867 20.9371 94.4092 21.5596C95.0317 22.182 95.3818 23.026 95.3828 23.9063V27.2266ZM84.7761 71.1988C84.4476 71.4616 84.2107 71.8216 84.0994 72.2273L83.0203 76.1609L78.9458 76.3501C78.5255 76.3697 78.1223 76.5218 77.7938 76.7846L74.6086 79.3326L71.201 77.0914C70.8759 76.8775 70.4953 76.7635 70.1061 76.7635C70.0754 76.7635 70.0445 76.7635 70.0136 76.7657L65.9391 76.9549L64.5001 73.1382C64.3515 72.7446 64.0822 72.4081 63.7308 72.1768L60.3231 69.9356L61.4022 66.002C61.5135 65.5963 61.4935 65.1658 61.3451 64.7722L59.9053 60.9545L63.0904 58.4065C63.4191 58.1435 63.656 57.7832 63.7671 57.3772L64.8462 53.4436L68.9208 53.2544C69.341 53.2349 69.7443 53.0829 70.0729 52.8201L73.2579 50.2719L76.6656 52.5131C77.017 52.7444 77.4326 52.8584 77.8529 52.8388L81.9274 52.6496L83.3666 56.4663C83.515 56.8599 83.7843 57.1964 84.1357 57.4277L87.5434 59.6689L86.4643 63.6024C86.3529 64.0081 86.3729 64.4386 86.5212 64.8323L87.9604 68.649L84.7761 71.1988ZM92.0625 67.0703H91.6236L90.478 64.0339L91.7688 59.3287C91.8801 58.923 91.8601 58.4924 91.7117 58.0988C91.5633 57.7051 91.294 57.3685 90.9426 57.1373L86.8665 54.4558L85.1451 49.8904C84.9962 49.497 84.7268 49.1608 84.3755 48.9296C84.0241 48.6984 83.6086 48.5841 83.1885 48.6031L78.3147 48.8295L74.2387 46.1481C73.8873 45.9168 73.4716 45.8028 73.0513 45.8223C72.6311 45.8418 72.2278 45.9938 71.8992 46.2566L68.0898 49.3048L63.216 49.5313C62.7957 49.5508 62.3924 49.7029 62.0639 49.9658C61.7354 50.2286 61.4986 50.5887 61.3873 50.9944L60.0965 55.6994L56.2861 58.7473C55.9577 59.0101 55.7209 59.37 55.6096 59.7756C55.4983 60.1811 55.5181 60.6115 55.6664 61.0051L57.388 65.5706L56.9773 67.0703H30.9688C30.0885 67.0693 29.2445 66.7192 28.6221 66.0967C27.9996 65.4743 27.6494 64.6303 27.6484 63.75V41.836H95.3828V63.75C95.3818 64.6303 95.0317 65.4743 94.4092 66.0967C93.7867 66.7192 92.9428 67.0693 92.0625 67.0703ZM102.644 51.4843C101.901 52.5312 100.566 52.7792 99.3672 52.8622V23.9063C99.365 21.9696 98.5947 20.1129 97.2253 18.7435C95.8559 17.374 93.9992 16.6037 92.0625 16.6016H31.3273C31.4624 15.9135 31.8116 15.2856 32.3248 14.8078C32.8381 14.3299 33.4893 14.0265 34.1853 13.9409L94.835 6.58621C95.7088 6.48123 96.5887 6.72713 97.2815 7.26996C97.9744 7.81279 98.4236 8.60824 98.5308 9.48185L103.327 49.0372C103.38 49.47 103.348 49.9092 103.23 50.3292C103.113 50.7493 102.914 51.1419 102.644 51.4843Z" fill="black"/>
<path d="M36.2812 48.4766H30.9688C30.4404 48.4766 29.9337 48.6865 29.5601 49.0601C29.1865 49.4337 28.9766 49.9404 28.9766 50.4688C28.9766 50.9971 29.1865 51.5038 29.5601 51.8774C29.9337 52.251 30.4404 52.4609 30.9688 52.4609H36.2812C36.8096 52.4609 37.3163 52.251 37.6899 51.8774C38.0635 51.5038 38.2734 50.9971 38.2734 50.4688C38.2734 49.9404 38.0635 49.4337 37.6899 49.0601C37.3163 48.6865 36.8096 48.4766 36.2812 48.4766Z" fill="black"/>
<path d="M54.875 48.4766H44.25C43.7216 48.4766 43.2149 48.6865 42.8413 49.0601C42.4677 49.4337 42.2578 49.9404 42.2578 50.4688C42.2578 50.9971 42.4677 51.5038 42.8413 51.8774C43.2149 52.251 43.7216 52.4609 44.25 52.4609H54.875C55.4034 52.4609 55.9101 52.251 56.2837 51.8774C56.6573 51.5038 56.8672 50.9971 56.8672 50.4688C56.8672 49.9404 56.6573 49.4337 56.2837 49.0601C55.9101 48.6865 55.4034 48.4766 54.875 48.4766Z" fill="black"/>
<path d="M77.8371 58.0813L67.2121 68.7063C65.3576 70.5082 68.229 73.378 70.0296 71.5238L80.6546 60.8988C81.0282 60.5251 81.2381 60.0184 81.2381 59.49C81.2381 58.9617 81.0282 58.4549 80.6546 58.0813C80.281 57.7077 79.7742 57.4978 79.2459 57.4978C78.7175 57.4978 78.2108 57.7077 77.8371 58.0813Z" fill="black"/>
<path d="M78.5823 71.4433C79.6825 71.4433 80.5745 70.5513 80.5745 69.4511C80.5745 68.3508 79.6825 67.4589 78.5823 67.4589C77.482 67.4589 76.5901 68.3508 76.5901 69.4511C76.5901 70.5513 77.482 71.4433 78.5823 71.4433Z" fill="black"/>
<path d="M69.2854 62.1464C70.3857 62.1464 71.2776 61.2545 71.2776 60.1542C71.2776 59.054 70.3857 58.162 69.2854 58.162C68.1851 58.162 67.2932 59.054 67.2932 60.1542C67.2932 61.2545 68.1851 62.1464 69.2854 62.1464Z" fill="black"/>
</svg>
