<svg width="865" height="584" viewBox="0 0 865 584" fill="none" xmlns="http://www.w3.org/2000/svg">
<circle cx="633.5" cy="5.5" r="5.5" fill="#0D0D73"/>
<circle cx="285.5" cy="489.5" r="5.5" fill="#0D0D73"/>
<circle cx="652" cy="454" r="13" fill="#F15211"/>
<circle cx="146" cy="234" r="7" fill="#F15211"/>
<g filter="url(#filter0_f_3263_552)">
<rect x="242" y="423" width="383" height="61" fill="#D1D1D1"/>
</g>
<g filter="url(#filter1_f_3263_552)">
<rect x="100" y="154" width="383" height="61" fill="#D1D1D1"/>
</g>
<g filter="url(#filter2_f_3263_552)">
<rect x="389" y="302" width="413" height="61" fill="#D1D1D1"/>
</g>
<g class="bobbing-rect1">
<rect x="252" y="68" width="356" height="356" rx="40" fill="#0D0D73"/>
<circle cx="530" cy="68" r="29" fill="#323FB5"/>
<rect x="81" y="151" width="420" height="74" rx="20" fill="white"/>
<path d="M118.529 196C116.028 196 114 193.985 114 191.5C114 189.015 116.028 187 118.529 187H134.471C136.972 187 139 184.985 139 182.5C139 180.015 136.972 178 134.471 178" stroke="black" stroke-width="3" stroke-linecap="round"/>
<path d="M185.714 190.644V195H183.932V190.608L178.928 182.4H180.854L184.886 189.042L188.936 182.4H190.718L185.714 190.644ZM195.486 195.108C194.538 195.108 193.686 194.898 192.93 194.478C192.174 194.058 191.58 193.482 191.148 192.75C190.728 192.006 190.518 191.166 190.518 190.23C190.518 189.294 190.728 188.46 191.148 187.728C191.58 186.984 192.174 186.408 192.93 186C193.686 185.58 194.538 185.37 195.486 185.37C196.434 185.37 197.28 185.58 198.024 186C198.78 186.408 199.368 186.984 199.788 187.728C200.22 188.46 200.436 189.294 200.436 190.23C200.436 191.166 200.22 192.006 199.788 192.75C199.368 193.482 198.78 194.058 198.024 194.478C197.28 194.898 196.434 195.108 195.486 195.108ZM195.486 193.596C196.098 193.596 196.644 193.458 197.124 193.182C197.616 192.894 198 192.498 198.276 191.994C198.552 191.478 198.69 190.89 198.69 190.23C198.69 189.57 198.552 188.988 198.276 188.484C198 187.968 197.616 187.572 197.124 187.296C196.644 187.02 196.098 186.882 195.486 186.882C194.874 186.882 194.322 187.02 193.83 187.296C193.35 187.572 192.966 187.968 192.678 188.484C192.402 188.988 192.264 189.57 192.264 190.23C192.264 190.89 192.402 191.478 192.678 191.994C192.966 192.498 193.35 192.894 193.83 193.182C194.322 193.458 194.874 193.596 195.486 193.596ZM211.898 185.46V195H210.26V193.56C209.912 194.052 209.45 194.436 208.874 194.712C208.31 194.976 207.692 195.108 207.02 195.108C205.748 195.108 204.746 194.76 204.014 194.064C203.282 193.356 202.916 192.318 202.916 190.95V185.46H204.644V190.752C204.644 191.676 204.866 192.378 205.31 192.858C205.754 193.326 206.39 193.56 207.218 193.56C208.13 193.56 208.85 193.284 209.378 192.732C209.906 192.18 210.17 191.4 210.17 190.392V185.46H211.898ZM223.117 195.108C222.337 195.108 221.587 195.006 220.867 194.802C220.147 194.586 219.583 194.316 219.175 193.992L219.895 192.624C220.315 192.924 220.825 193.164 221.425 193.344C222.025 193.524 222.631 193.614 223.243 193.614C224.755 193.614 225.511 193.182 225.511 192.318C225.511 192.03 225.409 191.802 225.205 191.634C225.001 191.466 224.743 191.346 224.431 191.274C224.131 191.19 223.699 191.1 223.135 191.004C222.367 190.884 221.737 190.746 221.245 190.59C220.765 190.434 220.351 190.17 220.003 189.798C219.655 189.426 219.481 188.904 219.481 188.232C219.481 187.368 219.841 186.678 220.561 186.162C221.281 185.634 222.247 185.37 223.459 185.37C224.095 185.37 224.731 185.448 225.367 185.604C226.003 185.76 226.525 185.97 226.933 186.234L226.195 187.602C225.415 187.098 224.497 186.846 223.441 186.846C222.709 186.846 222.151 186.966 221.767 187.206C221.383 187.446 221.191 187.764 221.191 188.16C221.191 188.472 221.299 188.718 221.515 188.898C221.731 189.078 221.995 189.21 222.307 189.294C222.631 189.378 223.081 189.474 223.657 189.582C224.425 189.714 225.043 189.858 225.511 190.014C225.991 190.158 226.399 190.41 226.735 190.77C227.071 191.13 227.239 191.634 227.239 192.282C227.239 193.146 226.867 193.836 226.123 194.352C225.391 194.856 224.389 195.108 223.117 195.108ZM238.201 190.284C238.201 190.416 238.189 190.59 238.165 190.806H230.425C230.533 191.646 230.899 192.324 231.523 192.84C232.159 193.344 232.945 193.596 233.881 193.596C235.021 193.596 235.939 193.212 236.635 192.444L237.589 193.56C237.157 194.064 236.617 194.448 235.969 194.712C235.333 194.976 234.619 195.108 233.827 195.108C232.819 195.108 231.925 194.904 231.145 194.496C230.365 194.076 229.759 193.494 229.327 192.75C228.907 192.006 228.697 191.166 228.697 190.23C228.697 189.306 228.901 188.472 229.309 187.728C229.729 186.984 230.299 186.408 231.019 186C231.751 185.58 232.573 185.37 233.485 185.37C234.397 185.37 235.207 185.58 235.915 186C236.635 186.408 237.193 186.984 237.589 187.728C237.997 188.472 238.201 189.324 238.201 190.284ZM233.485 186.828C232.657 186.828 231.961 187.08 231.397 187.584C230.845 188.088 230.521 188.748 230.425 189.564H236.545C236.449 188.76 236.119 188.106 235.555 187.602C235.003 187.086 234.313 186.828 233.485 186.828ZM245.875 185.37C247.087 185.37 248.047 185.724 248.755 186.432C249.475 187.128 249.835 188.154 249.835 189.51V195H248.107V189.708C248.107 188.784 247.885 188.088 247.441 187.62C246.997 187.152 246.361 186.918 245.533 186.918C244.597 186.918 243.859 187.194 243.319 187.746C242.779 188.286 242.509 189.066 242.509 190.086V195H240.781V185.46H242.437V186.9C242.785 186.408 243.253 186.03 243.841 185.766C244.441 185.502 245.119 185.37 245.875 185.37ZM258.576 194.442C258.324 194.658 258.012 194.826 257.64 194.946C257.268 195.054 256.884 195.108 256.488 195.108C255.528 195.108 254.784 194.85 254.256 194.334C253.728 193.818 253.464 193.08 253.464 192.12V186.882H251.844V185.46H253.464V183.372H255.192V185.46H257.928V186.882H255.192V192.048C255.192 192.564 255.318 192.96 255.57 193.236C255.834 193.512 256.206 193.65 256.686 193.65C257.214 193.65 257.664 193.5 258.036 193.2L258.576 194.442ZM271.746 195.144C270.486 195.144 269.346 194.868 268.326 194.316C267.318 193.752 266.526 192.984 265.95 192.012C265.374 191.028 265.086 189.924 265.086 188.7C265.086 187.476 265.374 186.378 265.95 185.406C266.526 184.422 267.324 183.654 268.344 183.102C269.364 182.538 270.504 182.256 271.764 182.256C272.748 182.256 273.648 182.424 274.464 182.76C275.28 183.084 275.976 183.57 276.552 184.218L275.382 185.352C274.434 184.356 273.252 183.858 271.836 183.858C270.9 183.858 270.054 184.068 269.298 184.488C268.542 184.908 267.948 185.49 267.516 186.234C267.096 186.966 266.886 187.788 266.886 188.7C266.886 189.612 267.096 190.44 267.516 191.184C267.948 191.916 268.542 192.492 269.298 192.912C270.054 193.332 270.9 193.542 271.836 193.542C273.24 193.542 274.422 193.038 275.382 192.03L276.552 193.164C275.976 193.812 275.274 194.304 274.446 194.64C273.63 194.976 272.73 195.144 271.746 195.144ZM284.141 185.37C285.353 185.37 286.313 185.724 287.021 186.432C287.741 187.128 288.101 188.154 288.101 189.51V195H286.373V189.708C286.373 188.784 286.151 188.088 285.707 187.62C285.263 187.152 284.627 186.918 283.799 186.918C282.863 186.918 282.125 187.194 281.585 187.746C281.045 188.286 280.775 189.066 280.775 190.086V195H279.047V181.644H280.775V186.81C281.135 186.354 281.603 186 282.179 185.748C282.767 185.496 283.421 185.37 284.141 185.37ZM293.135 187.062C293.435 186.51 293.879 186.09 294.467 185.802C295.055 185.514 295.769 185.37 296.609 185.37V187.044C296.513 187.032 296.381 187.026 296.213 187.026C295.277 187.026 294.539 187.308 293.999 187.872C293.471 188.424 293.207 189.216 293.207 190.248V195H291.479V185.46H293.135V187.062ZM298.919 185.46H300.647V195H298.919V185.46ZM299.783 183.624C299.447 183.624 299.165 183.516 298.937 183.3C298.721 183.084 298.613 182.82 298.613 182.508C298.613 182.196 298.721 181.932 298.937 181.716C299.165 181.488 299.447 181.374 299.783 181.374C300.119 181.374 300.395 181.482 300.611 181.698C300.839 181.902 300.953 182.16 300.953 182.472C300.953 182.796 300.839 183.072 300.611 183.3C300.395 183.516 300.119 183.624 299.783 183.624ZM306.862 195.108C306.082 195.108 305.332 195.006 304.612 194.802C303.892 194.586 303.328 194.316 302.92 193.992L303.64 192.624C304.06 192.924 304.57 193.164 305.17 193.344C305.77 193.524 306.376 193.614 306.988 193.614C308.5 193.614 309.256 193.182 309.256 192.318C309.256 192.03 309.154 191.802 308.95 191.634C308.746 191.466 308.488 191.346 308.176 191.274C307.876 191.19 307.444 191.1 306.88 191.004C306.112 190.884 305.482 190.746 304.99 190.59C304.51 190.434 304.096 190.17 303.748 189.798C303.4 189.426 303.226 188.904 303.226 188.232C303.226 187.368 303.586 186.678 304.306 186.162C305.026 185.634 305.992 185.37 307.204 185.37C307.84 185.37 308.476 185.448 309.112 185.604C309.748 185.76 310.27 185.97 310.678 186.234L309.94 187.602C309.16 187.098 308.242 186.846 307.186 186.846C306.454 186.846 305.896 186.966 305.512 187.206C305.128 187.446 304.936 187.764 304.936 188.16C304.936 188.472 305.044 188.718 305.26 188.898C305.476 189.078 305.74 189.21 306.052 189.294C306.376 189.378 306.826 189.474 307.402 189.582C308.17 189.714 308.788 189.858 309.256 190.014C309.736 190.158 310.144 190.41 310.48 190.77C310.816 191.13 310.984 191.634 310.984 192.282C310.984 193.146 310.612 193.836 309.868 194.352C309.136 194.856 308.134 195.108 306.862 195.108ZM318.688 194.442C318.436 194.658 318.124 194.826 317.752 194.946C317.38 195.054 316.996 195.108 316.6 195.108C315.64 195.108 314.896 194.85 314.368 194.334C313.84 193.818 313.576 193.08 313.576 192.12V186.882H311.956V185.46H313.576V183.372H315.304V185.46H318.04V186.882H315.304V192.048C315.304 192.564 315.43 192.96 315.682 193.236C315.946 193.512 316.318 193.65 316.798 193.65C317.326 193.65 317.776 193.5 318.148 193.2L318.688 194.442ZM320.957 185.46H322.685V195H320.957V185.46ZM321.821 183.624C321.485 183.624 321.203 183.516 320.975 183.3C320.759 183.084 320.651 182.82 320.651 182.508C320.651 182.196 320.759 181.932 320.975 181.716C321.203 181.488 321.485 181.374 321.821 181.374C322.157 181.374 322.433 181.482 322.649 181.698C322.877 181.902 322.991 182.16 322.991 182.472C322.991 182.796 322.877 183.072 322.649 183.3C322.433 183.516 322.157 183.624 321.821 183.624ZM331.258 185.37C332.47 185.37 333.43 185.724 334.138 186.432C334.858 187.128 335.218 188.154 335.218 189.51V195H333.49V189.708C333.49 188.784 333.268 188.088 332.824 187.62C332.38 187.152 331.744 186.918 330.916 186.918C329.98 186.918 329.242 187.194 328.702 187.746C328.162 188.286 327.892 189.066 327.892 190.086V195H326.164V185.46H327.82V186.9C328.168 186.408 328.636 186.03 329.224 185.766C329.824 185.502 330.502 185.37 331.258 185.37ZM342.07 185.37C343.39 185.37 344.398 185.694 345.094 186.342C345.802 186.99 346.156 187.956 346.156 189.24V195H344.518V193.74C344.23 194.184 343.816 194.526 343.276 194.766C342.748 194.994 342.118 195.108 341.386 195.108C340.318 195.108 339.46 194.85 338.812 194.334C338.176 193.818 337.858 193.14 337.858 192.3C337.858 191.46 338.164 190.788 338.776 190.284C339.388 189.768 340.36 189.51 341.692 189.51H344.428V189.168C344.428 188.424 344.212 187.854 343.78 187.458C343.348 187.062 342.712 186.864 341.872 186.864C341.308 186.864 340.756 186.96 340.216 187.152C339.676 187.332 339.22 187.578 338.848 187.89L338.128 186.594C338.62 186.198 339.208 185.898 339.892 185.694C340.576 185.478 341.302 185.37 342.07 185.37ZM341.674 193.776C342.334 193.776 342.904 193.632 343.384 193.344C343.864 193.044 344.212 192.624 344.428 192.084V190.752H341.764C340.3 190.752 339.568 191.244 339.568 192.228C339.568 192.708 339.754 193.086 340.126 193.362C340.498 193.638 341.014 193.776 341.674 193.776ZM363.35 191.562C363.35 192.51 362.99 193.314 362.27 193.974C361.562 194.634 360.53 195.018 359.174 195.126V197.16H358.022V195.126C357.146 195.078 356.312 194.916 355.52 194.64C354.74 194.352 354.116 193.992 353.648 193.56L354.314 192.156C354.746 192.552 355.292 192.882 355.952 193.146C356.612 193.398 357.302 193.548 358.022 193.596V189.42C357.182 189.216 356.48 188.994 355.916 188.754C355.364 188.514 354.896 188.16 354.512 187.692C354.14 187.224 353.954 186.612 353.954 185.856C353.954 184.908 354.296 184.104 354.98 183.444C355.676 182.784 356.69 182.4 358.022 182.292V180.24H359.174V182.274C359.858 182.298 360.518 182.406 361.154 182.598C361.802 182.79 362.36 183.048 362.828 183.372L362.234 184.812C361.262 184.2 360.242 183.864 359.174 183.804V187.998C360.05 188.214 360.77 188.442 361.334 188.682C361.898 188.91 362.372 189.258 362.756 189.726C363.152 190.182 363.35 190.794 363.35 191.562ZM355.718 185.784C355.718 186.3 355.916 186.702 356.312 186.99C356.708 187.278 357.278 187.518 358.022 187.71V183.822C357.254 183.918 356.678 184.146 356.294 184.506C355.91 184.854 355.718 185.28 355.718 185.784ZM359.174 193.578C359.978 193.506 360.578 193.302 360.974 192.966C361.382 192.618 361.586 192.186 361.586 191.67C361.586 191.142 361.376 190.74 360.956 190.464C360.548 190.176 359.954 189.924 359.174 189.708V193.578ZM369.835 187.692C371.071 187.812 372.013 188.196 372.661 188.844C373.309 189.48 373.633 190.296 373.633 191.292C373.633 192.012 373.453 192.666 373.093 193.254C372.733 193.83 372.193 194.292 371.473 194.64C370.765 194.976 369.895 195.144 368.863 195.144C367.963 195.144 367.099 195.012 366.271 194.748C365.443 194.472 364.765 194.094 364.237 193.614L365.065 192.192C365.497 192.6 366.049 192.93 366.721 193.182C367.393 193.422 368.107 193.542 368.863 193.542C369.799 193.542 370.525 193.344 371.041 192.948C371.569 192.552 371.833 192.006 371.833 191.31C371.833 190.614 371.575 190.074 371.059 189.69C370.543 189.306 369.763 189.114 368.719 189.114H367.711V187.854L370.879 183.966H364.813V182.4H373.129V183.624L369.835 187.692ZM380.64 195.144C379.644 195.144 378.756 194.892 377.976 194.388C377.208 193.872 376.602 193.128 376.158 192.156C375.714 191.184 375.492 190.032 375.492 188.7C375.492 187.368 375.714 186.216 376.158 185.244C376.602 184.272 377.208 183.534 377.976 183.03C378.756 182.514 379.644 182.256 380.64 182.256C381.624 182.256 382.5 182.514 383.268 183.03C384.048 183.534 384.66 184.272 385.104 185.244C385.548 186.216 385.77 187.368 385.77 188.7C385.77 190.032 385.548 191.184 385.104 192.156C384.66 193.128 384.048 193.872 383.268 194.388C382.5 194.892 381.624 195.144 380.64 195.144ZM380.64 193.542C381.648 193.542 382.452 193.128 383.052 192.3C383.664 191.472 383.97 190.272 383.97 188.7C383.97 187.128 383.664 185.928 383.052 185.1C382.452 184.272 381.648 183.858 380.64 183.858C379.62 183.858 378.804 184.272 378.192 185.1C377.592 185.928 377.292 187.128 377.292 188.7C377.292 190.272 377.592 191.472 378.192 192.3C378.804 193.128 379.62 193.542 380.64 193.542ZM392.826 195.144C391.83 195.144 390.942 194.892 390.162 194.388C389.394 193.872 388.788 193.128 388.344 192.156C387.9 191.184 387.678 190.032 387.678 188.7C387.678 187.368 387.9 186.216 388.344 185.244C388.788 184.272 389.394 183.534 390.162 183.03C390.942 182.514 391.83 182.256 392.826 182.256C393.81 182.256 394.686 182.514 395.454 183.03C396.234 183.534 396.846 184.272 397.29 185.244C397.734 186.216 397.956 187.368 397.956 188.7C397.956 190.032 397.734 191.184 397.29 192.156C396.846 193.128 396.234 193.872 395.454 194.388C394.686 194.892 393.81 195.144 392.826 195.144ZM392.826 193.542C393.834 193.542 394.638 193.128 395.238 192.3C395.85 191.472 396.156 190.272 396.156 188.7C396.156 187.128 395.85 185.928 395.238 185.1C394.638 184.272 393.834 183.858 392.826 183.858C391.806 183.858 390.99 184.272 390.378 185.1C389.778 185.928 389.478 187.128 389.478 188.7C389.478 190.272 389.778 191.472 390.378 192.3C390.99 193.128 391.806 193.542 392.826 193.542Z" fill="black"/>
<path d="M355 199H399" stroke="black" stroke-width="0.5" stroke-linecap="round"/>
<path d="M464 196L472 188L464 180" stroke="black" stroke-width="2" stroke-linecap="round" stroke-linejoin="round"/>
</g>
<g class="bobbing-rect2">
<rect x="343" y="255" width="448" height="74" rx="20" fill="white"/>
<path d="M380.529 300C378.028 300 376 297.985 376 295.5C376 293.015 378.028 291 380.529 291H396.471C398.972 291 401 288.985 401 286.5C401 284.015 398.972 282 396.471 282" stroke="black" stroke-width="3" stroke-linecap="round"/>
<path d="M429.714 294.644V299H427.932V294.608L422.928 286.4H424.854L428.886 293.042L432.936 286.4H434.718L429.714 294.644ZM439.486 299.108C438.538 299.108 437.686 298.898 436.93 298.478C436.174 298.058 435.58 297.482 435.148 296.75C434.728 296.006 434.518 295.166 434.518 294.23C434.518 293.294 434.728 292.46 435.148 291.728C435.58 290.984 436.174 290.408 436.93 290C437.686 289.58 438.538 289.37 439.486 289.37C440.434 289.37 441.28 289.58 442.024 290C442.78 290.408 443.368 290.984 443.788 291.728C444.22 292.46 444.436 293.294 444.436 294.23C444.436 295.166 444.22 296.006 443.788 296.75C443.368 297.482 442.78 298.058 442.024 298.478C441.28 298.898 440.434 299.108 439.486 299.108ZM439.486 297.596C440.098 297.596 440.644 297.458 441.124 297.182C441.616 296.894 442 296.498 442.276 295.994C442.552 295.478 442.69 294.89 442.69 294.23C442.69 293.57 442.552 292.988 442.276 292.484C442 291.968 441.616 291.572 441.124 291.296C440.644 291.02 440.098 290.882 439.486 290.882C438.874 290.882 438.322 291.02 437.83 291.296C437.35 291.572 436.966 291.968 436.678 292.484C436.402 292.988 436.264 293.57 436.264 294.23C436.264 294.89 436.402 295.478 436.678 295.994C436.966 296.498 437.35 296.894 437.83 297.182C438.322 297.458 438.874 297.596 439.486 297.596ZM455.898 289.46V299H454.26V297.56C453.912 298.052 453.45 298.436 452.874 298.712C452.31 298.976 451.692 299.108 451.02 299.108C449.748 299.108 448.746 298.76 448.014 298.064C447.282 297.356 446.916 296.318 446.916 294.95V289.46H448.644V294.752C448.644 295.676 448.866 296.378 449.31 296.858C449.754 297.326 450.39 297.56 451.218 297.56C452.13 297.56 452.85 297.284 453.378 296.732C453.906 296.18 454.17 295.4 454.17 294.392V289.46H455.898ZM466.037 291.062C466.337 290.51 466.781 290.09 467.369 289.802C467.957 289.514 468.671 289.37 469.511 289.37V291.044C469.415 291.032 469.283 291.026 469.115 291.026C468.179 291.026 467.441 291.308 466.901 291.872C466.373 292.424 466.109 293.216 466.109 294.248V299H464.381V289.46H466.037V291.062ZM480.355 294.284C480.355 294.416 480.343 294.59 480.319 294.806H472.579C472.687 295.646 473.053 296.324 473.677 296.84C474.313 297.344 475.099 297.596 476.035 297.596C477.175 297.596 478.093 297.212 478.789 296.444L479.743 297.56C479.311 298.064 478.771 298.448 478.123 298.712C477.487 298.976 476.773 299.108 475.981 299.108C474.973 299.108 474.079 298.904 473.299 298.496C472.519 298.076 471.913 297.494 471.481 296.75C471.061 296.006 470.851 295.166 470.851 294.23C470.851 293.306 471.055 292.472 471.463 291.728C471.883 290.984 472.453 290.408 473.173 290C473.905 289.58 474.727 289.37 475.639 289.37C476.551 289.37 477.361 289.58 478.069 290C478.789 290.408 479.347 290.984 479.743 291.728C480.151 292.472 480.355 293.324 480.355 294.284ZM475.639 290.828C474.811 290.828 474.115 291.08 473.551 291.584C472.999 292.088 472.675 292.748 472.579 293.564H478.699C478.603 292.76 478.273 292.106 477.709 291.602C477.157 291.086 476.467 290.828 475.639 290.828ZM487.093 299.108C486.121 299.108 485.251 298.898 484.483 298.478C483.727 298.058 483.133 297.482 482.701 296.75C482.269 296.006 482.053 295.166 482.053 294.23C482.053 293.294 482.269 292.46 482.701 291.728C483.133 290.984 483.727 290.408 484.483 290C485.251 289.58 486.121 289.37 487.093 289.37C487.957 289.37 488.725 289.544 489.397 289.892C490.081 290.24 490.609 290.744 490.981 291.404L489.667 292.25C489.367 291.794 488.995 291.452 488.551 291.224C488.107 290.996 487.615 290.882 487.075 290.882C486.451 290.882 485.887 291.02 485.383 291.296C484.891 291.572 484.501 291.968 484.213 292.484C483.937 292.988 483.799 293.57 483.799 294.23C483.799 294.902 483.937 295.496 484.213 296.012C484.501 296.516 484.891 296.906 485.383 297.182C485.887 297.458 486.451 297.596 487.075 297.596C487.615 297.596 488.107 297.482 488.551 297.254C488.995 297.026 489.367 296.684 489.667 296.228L490.981 297.056C490.609 297.716 490.081 298.226 489.397 298.586C488.725 298.934 487.957 299.108 487.093 299.108ZM493.398 289.46H495.126V299H493.398V289.46ZM494.262 287.624C493.926 287.624 493.644 287.516 493.416 287.3C493.2 287.084 493.092 286.82 493.092 286.508C493.092 286.196 493.2 285.932 493.416 285.716C493.644 285.488 493.926 285.374 494.262 285.374C494.598 285.374 494.874 285.482 495.09 285.698C495.318 285.902 495.432 286.16 495.432 286.472C495.432 286.796 495.318 287.072 495.09 287.3C494.874 287.516 494.598 287.624 494.262 287.624ZM507.227 294.284C507.227 294.416 507.215 294.59 507.191 294.806H499.451C499.559 295.646 499.925 296.324 500.549 296.84C501.185 297.344 501.971 297.596 502.907 297.596C504.047 297.596 504.965 297.212 505.661 296.444L506.615 297.56C506.183 298.064 505.643 298.448 504.995 298.712C504.359 298.976 503.645 299.108 502.853 299.108C501.845 299.108 500.951 298.904 500.171 298.496C499.391 298.076 498.785 297.494 498.353 296.75C497.933 296.006 497.723 295.166 497.723 294.23C497.723 293.306 497.927 292.472 498.335 291.728C498.755 290.984 499.325 290.408 500.045 290C500.777 289.58 501.599 289.37 502.511 289.37C503.423 289.37 504.233 289.58 504.941 290C505.661 290.408 506.219 290.984 506.615 291.728C507.023 292.472 507.227 293.324 507.227 294.284ZM502.511 290.828C501.683 290.828 500.987 291.08 500.423 291.584C499.871 292.088 499.547 292.748 499.451 293.564H505.571C505.475 292.76 505.145 292.106 504.581 291.602C504.029 291.086 503.339 290.828 502.511 290.828ZM518.073 289.46L513.897 299H512.133L507.957 289.46H509.757L513.033 297.11L516.381 289.46H518.073ZM528.224 294.284C528.224 294.416 528.212 294.59 528.188 294.806H520.448C520.556 295.646 520.922 296.324 521.546 296.84C522.182 297.344 522.968 297.596 523.904 297.596C525.044 297.596 525.962 297.212 526.658 296.444L527.612 297.56C527.18 298.064 526.64 298.448 525.992 298.712C525.356 298.976 524.642 299.108 523.85 299.108C522.842 299.108 521.948 298.904 521.168 298.496C520.388 298.076 519.782 297.494 519.35 296.75C518.93 296.006 518.72 295.166 518.72 294.23C518.72 293.306 518.924 292.472 519.332 291.728C519.752 290.984 520.322 290.408 521.042 290C521.774 289.58 522.596 289.37 523.508 289.37C524.42 289.37 525.23 289.58 525.938 290C526.658 290.408 527.216 290.984 527.612 291.728C528.02 292.472 528.224 293.324 528.224 294.284ZM523.508 290.828C522.68 290.828 521.984 291.08 521.42 291.584C520.868 292.088 520.544 292.748 520.448 293.564H526.568C526.472 292.76 526.142 292.106 525.578 291.602C525.026 291.086 524.336 290.828 523.508 290.828ZM539.804 285.644V299H538.148V297.488C537.764 298.016 537.278 298.418 536.69 298.694C536.102 298.97 535.454 299.108 534.746 299.108C533.822 299.108 532.994 298.904 532.262 298.496C531.53 298.088 530.954 297.518 530.534 296.786C530.126 296.042 529.922 295.19 529.922 294.23C529.922 293.27 530.126 292.424 530.534 291.692C530.954 290.96 531.53 290.39 532.262 289.982C532.994 289.574 533.822 289.37 534.746 289.37C535.43 289.37 536.06 289.502 536.636 289.766C537.212 290.018 537.692 290.396 538.076 290.9V285.644H539.804ZM534.89 297.596C535.49 297.596 536.036 297.458 536.528 297.182C537.02 296.894 537.404 296.498 537.68 295.994C537.956 295.478 538.094 294.89 538.094 294.23C538.094 293.57 537.956 292.988 537.68 292.484C537.404 291.968 537.02 291.572 536.528 291.296C536.036 291.02 535.49 290.882 534.89 290.882C534.278 290.882 533.726 291.02 533.234 291.296C532.754 291.572 532.37 291.968 532.082 292.484C531.806 292.988 531.668 293.57 531.668 294.23C531.668 294.89 531.806 295.478 532.082 295.994C532.37 296.498 532.754 296.894 533.234 297.182C533.726 297.458 534.278 297.596 534.89 297.596ZM557.069 295.562C557.069 296.51 556.709 297.314 555.989 297.974C555.281 298.634 554.249 299.018 552.893 299.126V301.16H551.741V299.126C550.865 299.078 550.031 298.916 549.239 298.64C548.459 298.352 547.835 297.992 547.367 297.56L548.033 296.156C548.465 296.552 549.011 296.882 549.671 297.146C550.331 297.398 551.021 297.548 551.741 297.596V293.42C550.901 293.216 550.199 292.994 549.635 292.754C549.083 292.514 548.615 292.16 548.231 291.692C547.859 291.224 547.673 290.612 547.673 289.856C547.673 288.908 548.015 288.104 548.699 287.444C549.395 286.784 550.409 286.4 551.741 286.292V284.24H552.893V286.274C553.577 286.298 554.237 286.406 554.873 286.598C555.521 286.79 556.079 287.048 556.547 287.372L555.953 288.812C554.981 288.2 553.961 287.864 552.893 287.804V291.998C553.769 292.214 554.489 292.442 555.053 292.682C555.617 292.91 556.091 293.258 556.475 293.726C556.871 294.182 557.069 294.794 557.069 295.562ZM549.437 289.784C549.437 290.3 549.635 290.702 550.031 290.99C550.427 291.278 550.997 291.518 551.741 291.71V287.822C550.973 287.918 550.397 288.146 550.013 288.506C549.629 288.854 549.437 289.28 549.437 289.784ZM552.893 297.578C553.697 297.506 554.297 297.302 554.693 296.966C555.101 296.618 555.305 296.186 555.305 295.67C555.305 295.142 555.095 294.74 554.675 294.464C554.267 294.176 553.673 293.924 552.893 293.708V297.578ZM563.554 291.692C564.79 291.812 565.732 292.196 566.38 292.844C567.028 293.48 567.352 294.296 567.352 295.292C567.352 296.012 567.172 296.666 566.812 297.254C566.452 297.83 565.912 298.292 565.192 298.64C564.484 298.976 563.614 299.144 562.582 299.144C561.682 299.144 560.818 299.012 559.99 298.748C559.162 298.472 558.484 298.094 557.956 297.614L558.784 296.192C559.216 296.6 559.768 296.93 560.44 297.182C561.112 297.422 561.826 297.542 562.582 297.542C563.518 297.542 564.244 297.344 564.76 296.948C565.288 296.552 565.552 296.006 565.552 295.31C565.552 294.614 565.294 294.074 564.778 293.69C564.262 293.306 563.482 293.114 562.438 293.114H561.43V291.854L564.598 287.966H558.532V286.4H566.848V287.624L563.554 291.692ZM574.358 299.144C573.362 299.144 572.474 298.892 571.694 298.388C570.926 297.872 570.32 297.128 569.876 296.156C569.432 295.184 569.21 294.032 569.21 292.7C569.21 291.368 569.432 290.216 569.876 289.244C570.32 288.272 570.926 287.534 571.694 287.03C572.474 286.514 573.362 286.256 574.358 286.256C575.342 286.256 576.218 286.514 576.986 287.03C577.766 287.534 578.378 288.272 578.822 289.244C579.266 290.216 579.488 291.368 579.488 292.7C579.488 294.032 579.266 295.184 578.822 296.156C578.378 297.128 577.766 297.872 576.986 298.388C576.218 298.892 575.342 299.144 574.358 299.144ZM574.358 297.542C575.366 297.542 576.17 297.128 576.77 296.3C577.382 295.472 577.688 294.272 577.688 292.7C577.688 291.128 577.382 289.928 576.77 289.1C576.17 288.272 575.366 287.858 574.358 287.858C573.338 287.858 572.522 288.272 571.91 289.1C571.31 289.928 571.01 291.128 571.01 292.7C571.01 294.272 571.31 295.472 571.91 296.3C572.522 297.128 573.338 297.542 574.358 297.542ZM586.544 299.144C585.548 299.144 584.66 298.892 583.88 298.388C583.112 297.872 582.506 297.128 582.062 296.156C581.618 295.184 581.396 294.032 581.396 292.7C581.396 291.368 581.618 290.216 582.062 289.244C582.506 288.272 583.112 287.534 583.88 287.03C584.66 286.514 585.548 286.256 586.544 286.256C587.528 286.256 588.404 286.514 589.172 287.03C589.952 287.534 590.564 288.272 591.008 289.244C591.452 290.216 591.674 291.368 591.674 292.7C591.674 294.032 591.452 295.184 591.008 296.156C590.564 297.128 589.952 297.872 589.172 298.388C588.404 298.892 587.528 299.144 586.544 299.144ZM586.544 297.542C587.552 297.542 588.356 297.128 588.956 296.3C589.568 295.472 589.874 294.272 589.874 292.7C589.874 291.128 589.568 289.928 588.956 289.1C588.356 288.272 587.552 287.858 586.544 287.858C585.524 287.858 584.708 288.272 584.096 289.1C583.496 289.928 583.196 291.128 583.196 292.7C583.196 294.272 583.496 295.472 584.096 296.3C584.708 297.128 585.524 297.542 586.544 297.542ZM602.862 286.958C601.83 286.958 601.314 287.516 601.314 288.632V289.46H604.086V290.882H601.35V299H599.622V290.882H598.002V289.46H599.622V288.614C599.622 287.666 599.898 286.916 600.45 286.364C601.002 285.812 601.776 285.536 602.772 285.536C603.156 285.536 603.516 285.584 603.852 285.68C604.188 285.776 604.476 285.914 604.716 286.094L604.194 287.408C603.798 287.108 603.354 286.958 602.862 286.958ZM608.993 291.062C609.293 290.51 609.737 290.09 610.325 289.802C610.913 289.514 611.627 289.37 612.467 289.37V291.044C612.371 291.032 612.239 291.026 612.071 291.026C611.135 291.026 610.397 291.308 609.857 291.872C609.329 292.424 609.065 293.216 609.065 294.248V299H607.337V289.46H608.993V291.062ZM618.775 299.108C617.827 299.108 616.975 298.898 616.219 298.478C615.463 298.058 614.869 297.482 614.437 296.75C614.017 296.006 613.807 295.166 613.807 294.23C613.807 293.294 614.017 292.46 614.437 291.728C614.869 290.984 615.463 290.408 616.219 290C616.975 289.58 617.827 289.37 618.775 289.37C619.723 289.37 620.569 289.58 621.313 290C622.069 290.408 622.657 290.984 623.077 291.728C623.509 292.46 623.725 293.294 623.725 294.23C623.725 295.166 623.509 296.006 623.077 296.75C622.657 297.482 622.069 298.058 621.313 298.478C620.569 298.898 619.723 299.108 618.775 299.108ZM618.775 297.596C619.387 297.596 619.933 297.458 620.413 297.182C620.905 296.894 621.289 296.498 621.565 295.994C621.841 295.478 621.979 294.89 621.979 294.23C621.979 293.57 621.841 292.988 621.565 292.484C621.289 291.968 620.905 291.572 620.413 291.296C619.933 291.02 619.387 290.882 618.775 290.882C618.163 290.882 617.611 291.02 617.119 291.296C616.639 291.572 616.255 291.968 615.967 292.484C615.691 292.988 615.553 293.57 615.553 294.23C615.553 294.89 615.691 295.478 615.967 295.994C616.255 296.498 616.639 296.894 617.119 297.182C617.611 297.458 618.163 297.596 618.775 297.596ZM638.229 289.37C639.429 289.37 640.377 289.718 641.073 290.414C641.781 291.11 642.135 292.142 642.135 293.51V299H640.407V293.708C640.407 292.784 640.191 292.088 639.759 291.62C639.339 291.152 638.733 290.918 637.941 290.918C637.065 290.918 636.369 291.194 635.853 291.746C635.337 292.286 635.079 293.066 635.079 294.086V299H633.351V293.708C633.351 292.784 633.135 292.088 632.703 291.62C632.283 291.152 631.677 290.918 630.885 290.918C630.009 290.918 629.313 291.194 628.797 291.746C628.281 292.286 628.023 293.066 628.023 294.086V299H626.295V289.46H627.951V290.882C628.299 290.39 628.755 290.018 629.319 289.766C629.883 289.502 630.525 289.37 631.245 289.37C631.989 289.37 632.649 289.52 633.225 289.82C633.801 290.12 634.245 290.558 634.557 291.134C634.917 290.582 635.415 290.15 636.051 289.838C636.699 289.526 637.425 289.37 638.229 289.37ZM658.788 295.85H652.092L650.706 299H648.852L654.558 286.4H656.34L662.064 299H660.174L658.788 295.85ZM658.158 294.41L655.44 288.236L652.722 294.41H658.158ZM668.966 289.37C670.178 289.37 671.138 289.724 671.846 290.432C672.566 291.128 672.926 292.154 672.926 293.51V299H671.198V293.708C671.198 292.784 670.976 292.088 670.532 291.62C670.088 291.152 669.452 290.918 668.624 290.918C667.688 290.918 666.95 291.194 666.41 291.746C665.87 292.286 665.6 293.066 665.6 294.086V299H663.872V289.46H665.528V290.9C665.876 290.408 666.344 290.03 666.932 289.766C667.532 289.502 668.21 289.37 668.966 289.37ZM685.483 289.46V297.704C685.483 299.372 685.069 300.602 684.241 301.394C683.413 302.198 682.177 302.6 680.533 302.6C679.633 302.6 678.775 302.474 677.959 302.222C677.143 301.982 676.483 301.634 675.979 301.178L676.807 299.846C677.251 300.23 677.797 300.53 678.445 300.746C679.105 300.974 679.783 301.088 680.479 301.088C681.595 301.088 682.417 300.824 682.945 300.296C683.485 299.768 683.755 298.964 683.755 297.884V297.128C683.347 297.62 682.843 297.992 682.243 298.244C681.655 298.484 681.013 298.604 680.317 298.604C679.405 298.604 678.577 298.412 677.833 298.028C677.101 297.632 676.525 297.086 676.105 296.39C675.685 295.682 675.475 294.878 675.475 293.978C675.475 293.078 675.685 292.28 676.105 291.584C676.525 290.876 677.101 290.33 677.833 289.946C678.577 289.562 679.405 289.37 680.317 289.37C681.037 289.37 681.703 289.502 682.315 289.766C682.939 290.03 683.449 290.42 683.845 290.936V289.46H685.483ZM680.515 297.092C681.139 297.092 681.697 296.96 682.189 296.696C682.693 296.432 683.083 296.066 683.359 295.598C683.647 295.118 683.791 294.578 683.791 293.978C683.791 293.054 683.485 292.31 682.873 291.746C682.261 291.17 681.475 290.882 680.515 290.882C679.543 290.882 678.751 291.17 678.139 291.746C677.527 292.31 677.221 293.054 677.221 293.978C677.221 294.578 677.359 295.118 677.635 295.598C677.923 296.066 678.313 296.432 678.805 296.696C679.309 296.96 679.879 297.092 680.515 297.092ZM697.586 294.284C697.586 294.416 697.574 294.59 697.55 294.806H689.81C689.918 295.646 690.284 296.324 690.908 296.84C691.544 297.344 692.33 297.596 693.266 297.596C694.406 297.596 695.324 297.212 696.02 296.444L696.974 297.56C696.542 298.064 696.002 298.448 695.354 298.712C694.718 298.976 694.004 299.108 693.212 299.108C692.204 299.108 691.31 298.904 690.53 298.496C689.75 298.076 689.144 297.494 688.712 296.75C688.292 296.006 688.082 295.166 688.082 294.23C688.082 293.306 688.286 292.472 688.694 291.728C689.114 290.984 689.684 290.408 690.404 290C691.136 289.58 691.958 289.37 692.87 289.37C693.782 289.37 694.592 289.58 695.3 290C696.02 290.408 696.578 290.984 696.974 291.728C697.382 292.472 697.586 293.324 697.586 294.284ZM692.87 290.828C692.042 290.828 691.346 291.08 690.782 291.584C690.23 292.088 689.906 292.748 689.81 293.564H695.93C695.834 292.76 695.504 292.106 694.94 291.602C694.388 291.086 693.698 290.828 692.87 290.828ZM700.166 285.644H701.894V299H700.166V285.644ZM705.373 285.644H707.101V299H705.373V285.644ZM714.055 289.37C715.375 289.37 716.383 289.694 717.079 290.342C717.787 290.99 718.141 291.956 718.141 293.24V299H716.503V297.74C716.215 298.184 715.801 298.526 715.261 298.766C714.733 298.994 714.103 299.108 713.371 299.108C712.303 299.108 711.445 298.85 710.797 298.334C710.161 297.818 709.843 297.14 709.843 296.3C709.843 295.46 710.149 294.788 710.761 294.284C711.373 293.768 712.345 293.51 713.677 293.51H716.413V293.168C716.413 292.424 716.197 291.854 715.765 291.458C715.333 291.062 714.697 290.864 713.857 290.864C713.293 290.864 712.741 290.96 712.201 291.152C711.661 291.332 711.205 291.578 710.833 291.89L710.113 290.594C710.605 290.198 711.193 289.898 711.877 289.694C712.561 289.478 713.287 289.37 714.055 289.37ZM713.659 297.776C714.319 297.776 714.889 297.632 715.369 297.344C715.849 297.044 716.197 296.624 716.413 296.084V294.752H713.749C712.285 294.752 711.553 295.244 711.553 296.228C711.553 296.708 711.739 297.086 712.111 297.362C712.483 297.638 712.999 297.776 713.659 297.776Z" fill="black"/>
<path d="M548 303H592" stroke="black" stroke-width="0.5" stroke-linecap="round"/>
<path d="M754 300L762 292L754 284" stroke="black" stroke-width="2" stroke-linecap="round" stroke-linejoin="round"/>
</g>
<circle cx="609" cy="252" r="13" fill="#EC3614"/>
<circle cx="245" cy="274" r="66" fill="#F15211"/>
<defs>
<filter id="filter0_f_3263_552" x="142" y="323" width="583" height="261" filterUnits="userSpaceOnUse" color-interpolation-filters="sRGB">
<feFlood flood-opacity="0" result="BackgroundImageFix"/>
<feBlend mode="normal" in="SourceGraphic" in2="BackgroundImageFix" result="shape"/>
<feGaussianBlur stdDeviation="50" result="effect1_foregroundBlur_3263_552"/>
</filter>
<filter id="filter1_f_3263_552" x="0" y="54" width="583" height="261" filterUnits="userSpaceOnUse" color-interpolation-filters="sRGB">
<feFlood flood-opacity="0" result="BackgroundImageFix"/>
<feBlend mode="normal" in="SourceGraphic" in2="BackgroundImageFix" result="shape"/>
<feGaussianBlur stdDeviation="50" result="effect1_foregroundBlur_3263_552"/>
</filter>
<filter id="filter2_f_3263_552" x="289" y="202" width="613" height="261" filterUnits="userSpaceOnUse" color-interpolation-filters="sRGB">
<feFlood flood-opacity="0" result="BackgroundImageFix"/>
<feBlend mode="normal" in="SourceGraphic" in2="BackgroundImageFix" result="shape"/>
<feGaussianBlur stdDeviation="50" result="effect1_foregroundBlur_3263_552"/>
</filter>
</defs>
</svg>
