<svg viewBox="0 0 351 204" fill="none" xmlns="http://www.w3.org/2000/svg">
<rect width="351" height="204" rx="25" fill="white"/>
<path d="M40.0978 48C37.6966 48 35.75 45.9853 35.75 43.5C35.75 41.0147 37.6966 39 40.0978 39H55.4022C57.8034 39 59.75 36.9853 59.75 34.5C59.75 32.0147 57.8034 30 55.4022 30" stroke="black" stroke-width="2.5" stroke-linecap="round"/>
<path d="M56.05 96.315C56.05 98.1583 55.35 99.7217 53.95 101.005C52.5733 102.288 50.5667 103.035 47.93 103.245V107.2H45.69V103.245C43.9867 103.152 42.365 102.837 40.825 102.3C39.3083 101.74 38.095 101.04 37.185 100.2L38.48 97.47C39.32 98.24 40.3817 98.8817 41.665 99.395C42.9483 99.885 44.29 100.177 45.69 100.27V92.15C44.0567 91.7533 42.6917 91.3217 41.595 90.855C40.5217 90.3883 39.6117 89.7 38.865 88.79C38.1417 87.88 37.78 86.69 37.78 85.22C37.78 83.3767 38.445 81.8133 39.775 80.53C41.1283 79.2467 43.1 78.5 45.69 78.29V74.3H47.93V78.255C49.26 78.3017 50.5433 78.5117 51.78 78.885C53.04 79.2583 54.125 79.76 55.035 80.39L53.88 83.19C51.99 82 50.0067 81.3467 47.93 81.23V89.385C49.6333 89.805 51.0333 90.2483 52.13 90.715C53.2267 91.1583 54.1483 91.835 54.895 92.745C55.665 93.6317 56.05 94.8217 56.05 96.315ZM41.21 85.08C41.21 86.0833 41.595 86.865 42.365 87.425C43.135 87.985 44.2433 88.4517 45.69 88.825V81.265C44.1967 81.4517 43.0767 81.895 42.33 82.595C41.5833 83.2717 41.21 84.1 41.21 85.08ZM47.93 100.235C49.4933 100.095 50.66 99.6983 51.43 99.045C52.2233 98.3683 52.62 97.5283 52.62 96.525C52.62 95.4983 52.2117 94.7167 51.395 94.18C50.6017 93.62 49.4467 93.13 47.93 92.71V100.235ZM69.7383 88.125C71.3483 88.125 72.7833 88.4283 74.0433 89.035C75.3266 89.6417 76.3299 90.5167 77.0533 91.66C77.7766 92.78 78.1383 94.075 78.1383 95.545C78.1383 97.085 77.7533 98.4383 76.9833 99.605C76.2366 100.772 75.1983 101.682 73.8683 102.335C72.5616 102.965 71.0916 103.28 69.4583 103.28C66.1683 103.28 63.6249 102.218 61.8283 100.095C60.0549 97.9717 59.1683 94.9617 59.1683 91.065C59.1683 88.335 59.6466 86.0133 60.6033 84.1C61.5833 82.1633 62.9366 80.705 64.6633 79.725C66.4133 78.7217 68.4433 78.22 70.7533 78.22C71.9433 78.22 73.0633 78.3483 74.1133 78.605C75.1633 78.8383 76.0733 79.1883 76.8433 79.655L75.5133 82.385C74.3466 81.615 72.7833 81.23 70.8233 81.23C68.2799 81.23 66.2849 82.0233 64.8383 83.61C63.3916 85.1733 62.6683 87.46 62.6683 90.47C62.6683 90.8433 62.6799 91.135 62.7033 91.345C63.4033 90.295 64.3599 89.5017 65.5733 88.965C66.8099 88.405 68.1983 88.125 69.7383 88.125ZM69.3183 100.445C70.9283 100.445 72.2349 100.013 73.2383 99.15C74.2416 98.2867 74.7433 97.1317 74.7433 95.685C74.7433 94.2383 74.2299 93.095 73.2033 92.255C72.1999 91.3917 70.8466 90.96 69.1433 90.96C68.0466 90.96 67.0666 91.17 66.2033 91.59C65.3633 92.01 64.6983 92.5817 64.2083 93.305C63.7416 94.0283 63.5083 94.8333 63.5083 95.72C63.5083 96.5833 63.7299 97.3767 64.1733 98.1C64.6399 98.8 65.3049 99.3717 66.1683 99.815C67.0549 100.235 68.1049 100.445 69.3183 100.445ZM87.7698 88.265C91.2698 88.265 93.8365 88.93 95.4698 90.26C97.1265 91.5667 97.9548 93.3633 97.9548 95.65C97.9548 97.0967 97.6048 98.4033 96.9048 99.57C96.2282 100.713 95.1898 101.623 93.7898 102.3C92.4132 102.953 90.7098 103.28 88.6798 103.28C86.9532 103.28 85.2848 103.023 83.6748 102.51C82.0648 101.973 80.7348 101.238 79.6848 100.305L81.2948 97.54C82.1348 98.3333 83.2082 98.975 84.5148 99.465C85.8215 99.9317 87.1982 100.165 88.6448 100.165C90.4882 100.165 91.9115 99.78 92.9148 99.01C93.9415 98.2167 94.4548 97.1433 94.4548 95.79C94.4548 94.32 93.8948 93.2117 92.7748 92.465C91.6548 91.695 89.7415 91.31 87.0348 91.31H81.4698L82.7648 78.5H96.5898V81.545H85.7048L85.0398 88.265H87.7698ZM110.878 103.28C108.941 103.28 107.214 102.79 105.698 101.81C104.204 100.807 103.026 99.36 102.163 97.47C101.299 95.58 100.868 93.34 100.868 90.75C100.868 88.16 101.299 85.92 102.163 84.03C103.026 82.14 104.204 80.705 105.698 79.725C107.214 78.7217 108.941 78.22 110.878 78.22C112.791 78.22 114.494 78.7217 115.988 79.725C117.504 80.705 118.694 82.14 119.558 84.03C120.421 85.92 120.853 88.16 120.853 90.75C120.853 93.34 120.421 95.58 119.558 97.47C118.694 99.36 117.504 100.807 115.988 101.81C114.494 102.79 112.791 103.28 110.878 103.28ZM110.878 100.165C112.838 100.165 114.401 99.36 115.568 97.75C116.758 96.14 117.353 93.8067 117.353 90.75C117.353 87.6933 116.758 85.36 115.568 83.75C114.401 82.14 112.838 81.335 110.878 81.335C108.894 81.335 107.308 82.14 106.118 83.75C104.951 85.36 104.368 87.6933 104.368 90.75C104.368 93.8067 104.951 96.14 106.118 97.75C107.308 99.36 108.894 100.165 110.878 100.165Z" fill="black"/>
<path d="M199.752 38V32.4H202.056C202.552 32.4 202.976 32.48 203.328 32.64C203.685 32.8 203.96 33.0293 204.152 33.328C204.344 33.6267 204.44 33.9813 204.44 34.392C204.44 34.8027 204.344 35.1573 204.152 35.456C203.96 35.7493 203.685 35.976 203.328 36.136C202.976 36.2907 202.552 36.368 202.056 36.368H200.328L200.792 35.896V38H199.752ZM203.416 38L202 35.968H203.112L204.536 38H203.416ZM200.792 36.008L200.328 35.512H202.008C202.467 35.512 202.811 35.4133 203.04 35.216C203.275 35.0187 203.392 34.744 203.392 34.392C203.392 34.0347 203.275 33.76 203.04 33.568C202.811 33.376 202.467 33.28 202.008 33.28H200.328L200.792 32.768V36.008ZM206.564 34.728H209.348V35.584H206.564V34.728ZM206.644 37.128H209.804V38H205.604V32.4H209.692V33.272H206.644V37.128ZM213.555 38.08C213.128 38.08 212.731 38.0107 212.363 37.872C212 37.728 211.683 37.528 211.411 37.272C211.144 37.0107 210.936 36.704 210.787 36.352C210.638 36 210.563 35.616 210.563 35.2C210.563 34.784 210.638 34.4 210.787 34.048C210.936 33.696 211.147 33.392 211.419 33.136C211.691 32.8747 212.008 32.6747 212.371 32.536C212.734 32.392 213.131 32.32 213.563 32.32C214.022 32.32 214.44 32.4 214.819 32.56C215.198 32.7147 215.518 32.9467 215.779 33.256L215.107 33.888C214.904 33.6693 214.678 33.5067 214.427 33.4C214.176 33.288 213.904 33.232 213.611 33.232C213.318 33.232 213.048 33.28 212.803 33.376C212.563 33.472 212.352 33.608 212.171 33.784C211.995 33.96 211.856 34.168 211.755 34.408C211.659 34.648 211.611 34.912 211.611 35.2C211.611 35.488 211.659 35.752 211.755 35.992C211.856 36.232 211.995 36.44 212.171 36.616C212.352 36.792 212.563 36.928 212.803 37.024C213.048 37.12 213.318 37.168 213.611 37.168C213.904 37.168 214.176 37.1147 214.427 37.008C214.678 36.896 214.904 36.728 215.107 36.504L215.779 37.144C215.518 37.448 215.198 37.68 214.819 37.84C214.44 38 214.019 38.08 213.555 38.08ZM216.775 38V32.4H217.815V38H216.775ZM220.29 34.728H223.074V35.584H220.29V34.728ZM220.37 37.128H223.53V38H219.33V32.4H223.418V33.272H220.37V37.128ZM226.267 38L223.819 32.4H224.947L227.131 37.464H226.483L228.691 32.4H229.731L227.291 38H226.267ZM230.322 38V32.4H231.362V38H230.322ZM232.877 38V32.4H233.733L237.245 36.712H236.821V32.4H237.853V38H236.997L233.485 33.688H233.909V38H232.877ZM241.97 38.08C241.532 38.08 241.13 38.0107 240.762 37.872C240.399 37.728 240.082 37.528 239.81 37.272C239.538 37.0107 239.327 36.704 239.178 36.352C239.028 36 238.954 35.616 238.954 35.2C238.954 34.784 239.028 34.4 239.178 34.048C239.327 33.696 239.538 33.392 239.81 33.136C240.087 32.8747 240.41 32.6747 240.778 32.536C241.146 32.392 241.548 32.32 241.986 32.32C242.46 32.32 242.887 32.3973 243.266 32.552C243.65 32.7067 243.972 32.9333 244.234 33.232L243.578 33.872C243.359 33.6533 243.122 33.4933 242.866 33.392C242.615 33.2853 242.338 33.232 242.034 33.232C241.74 33.232 241.468 33.28 241.218 33.376C240.967 33.472 240.751 33.608 240.57 33.784C240.388 33.96 240.247 34.168 240.146 34.408C240.05 34.648 240.002 34.912 240.002 35.2C240.002 35.4827 240.05 35.744 240.146 35.984C240.247 36.224 240.388 36.4347 240.57 36.616C240.751 36.792 240.964 36.928 241.21 37.024C241.455 37.12 241.727 37.168 242.026 37.168C242.303 37.168 242.57 37.1253 242.826 37.04C243.087 36.9493 243.335 36.8 243.57 36.592L244.162 37.368C243.868 37.6027 243.527 37.7813 243.138 37.904C242.754 38.0213 242.364 38.08 241.97 38.08ZM243.178 37.232V35.136H244.162V37.368L243.178 37.232Z" fill="#AAAAAA"/>
<path d="M253 34L256 37L259 34" stroke="#AAAAAA" stroke-linecap="round" stroke-linejoin="round"/>
<path d="M203.134 78.704H200.334L199.782 80H198.71L201.23 74.4H202.254L204.782 80H203.694L203.134 78.704ZM202.79 77.888L201.734 75.44L200.686 77.888H202.79ZM207.319 80.056C206.876 80.056 206.479 79.9627 206.127 79.776C205.775 79.5893 205.5 79.3307 205.303 79C205.106 78.664 205.007 78.2853 205.007 77.864C205.007 77.4427 205.106 77.0667 205.303 76.736C205.5 76.4053 205.772 76.1467 206.119 75.96C206.471 75.7733 206.871 75.68 207.319 75.68C207.74 75.68 208.108 75.7653 208.423 75.936C208.743 76.1067 208.983 76.352 209.143 76.672L208.375 77.12C208.252 76.9227 208.098 76.776 207.911 76.68C207.73 76.5787 207.53 76.528 207.311 76.528C206.938 76.528 206.628 76.6507 206.383 76.896C206.138 77.136 206.015 77.4587 206.015 77.864C206.015 78.2693 206.135 78.5947 206.375 78.84C206.62 79.08 206.932 79.2 207.311 79.2C207.53 79.2 207.73 79.152 207.911 79.056C208.098 78.9547 208.252 78.8053 208.375 78.608L209.143 79.056C208.978 79.376 208.735 79.624 208.415 79.8C208.1 79.9707 207.735 80.056 207.319 80.056ZM211.905 80.056C211.462 80.056 211.065 79.9627 210.713 79.776C210.361 79.5893 210.086 79.3307 209.889 79C209.692 78.664 209.593 78.2853 209.593 77.864C209.593 77.4427 209.692 77.0667 209.889 76.736C210.086 76.4053 210.358 76.1467 210.705 75.96C211.057 75.7733 211.457 75.68 211.905 75.68C212.326 75.68 212.694 75.7653 213.009 75.936C213.329 76.1067 213.569 76.352 213.729 76.672L212.961 77.12C212.838 76.9227 212.684 76.776 212.497 76.68C212.316 76.5787 212.116 76.528 211.897 76.528C211.524 76.528 211.214 76.6507 210.969 76.896C210.724 77.136 210.601 77.4587 210.601 77.864C210.601 78.2693 210.721 78.5947 210.961 78.84C211.206 79.08 211.518 79.2 211.897 79.2C212.116 79.2 212.316 79.152 212.497 79.056C212.684 78.9547 212.838 78.8053 212.961 78.608L213.729 79.056C213.564 79.376 213.321 79.624 213.001 79.8C212.686 79.9707 212.321 80.056 211.905 80.056ZM216.451 80.056C216.019 80.056 215.63 79.9627 215.283 79.776C214.936 79.5893 214.664 79.3307 214.467 79C214.275 78.664 214.179 78.2853 214.179 77.864C214.179 77.4427 214.275 77.0667 214.467 76.736C214.664 76.4053 214.936 76.1467 215.283 75.96C215.63 75.7733 216.019 75.68 216.451 75.68C216.888 75.68 217.28 75.7733 217.627 75.96C217.974 76.1467 218.243 76.4053 218.435 76.736C218.632 77.0667 218.731 77.4427 218.731 77.864C218.731 78.2853 218.632 78.664 218.435 79C218.243 79.3307 217.974 79.5893 217.627 79.776C217.28 79.9627 216.888 80.056 216.451 80.056ZM216.451 79.2C216.819 79.2 217.123 79.0773 217.363 78.832C217.603 78.5867 217.723 78.264 217.723 77.864C217.723 77.464 217.603 77.1413 217.363 76.896C217.123 76.6507 216.819 76.528 216.451 76.528C216.083 76.528 215.779 76.6507 215.539 76.896C215.304 77.1413 215.187 77.464 215.187 77.864C215.187 78.264 215.304 78.5867 215.539 78.832C215.779 79.0773 216.083 79.2 216.451 79.2ZM223.823 75.728V80H222.871V79.456C222.711 79.648 222.511 79.7973 222.271 79.904C222.031 80.0053 221.773 80.056 221.495 80.056C220.925 80.056 220.474 79.8987 220.143 79.584C219.818 79.264 219.655 78.792 219.655 78.168V75.728H220.655V78.032C220.655 78.416 220.741 78.704 220.911 78.896C221.087 79.0827 221.335 79.176 221.655 79.176C222.013 79.176 222.295 79.0667 222.503 78.848C222.717 78.624 222.823 78.304 222.823 77.888V75.728H223.823ZM227.557 75.68C228.095 75.68 228.527 75.8373 228.853 76.152C229.178 76.4667 229.341 76.9333 229.341 77.552V80H228.341V77.68C228.341 77.3067 228.253 77.0267 228.077 76.84C227.901 76.648 227.65 76.552 227.325 76.552C226.957 76.552 226.666 76.664 226.453 76.888C226.239 77.1067 226.133 77.424 226.133 77.84V80H225.133V75.728H226.085V76.28C226.25 76.0827 226.458 75.9333 226.709 75.832C226.959 75.7307 227.242 75.68 227.557 75.68ZM233.177 79.768C233.06 79.864 232.916 79.936 232.745 79.984C232.58 80.032 232.404 80.056 232.217 80.056C231.748 80.056 231.385 79.9333 231.129 79.688C230.873 79.4427 230.745 79.0853 230.745 78.616V76.56H230.041V75.76H230.745V74.784H231.745V75.76H232.889V76.56H231.745V78.592C231.745 78.8 231.796 78.96 231.897 79.072C231.998 79.1787 232.145 79.232 232.337 79.232C232.561 79.232 232.748 79.1733 232.897 79.056L233.177 79.768ZM241.283 74.4V80H240.427L237.339 76.208V80H236.307V74.4H237.163L240.251 78.192V74.4H241.283ZM246.823 75.728V80H245.871V79.456C245.711 79.648 245.511 79.7973 245.271 79.904C245.031 80.0053 244.773 80.056 244.495 80.056C243.925 80.056 243.474 79.8987 243.143 79.584C242.818 79.264 242.655 78.792 242.655 78.168V75.728H243.655V78.032C243.655 78.416 243.741 78.704 243.911 78.896C244.087 79.0827 244.335 79.176 244.655 79.176C245.013 79.176 245.295 79.0667 245.503 78.848C245.717 78.624 245.823 78.304 245.823 77.888V75.728H246.823ZM253.525 75.68C254.063 75.68 254.49 75.8373 254.805 76.152C255.119 76.4613 255.277 76.928 255.277 77.552V80H254.277V77.68C254.277 77.3067 254.194 77.0267 254.029 76.84C253.863 76.648 253.626 76.552 253.317 76.552C252.981 76.552 252.711 76.664 252.509 76.888C252.306 77.1067 252.205 77.4213 252.205 77.832V80H251.205V77.68C251.205 77.3067 251.122 77.0267 250.957 76.84C250.791 76.648 250.554 76.552 250.245 76.552C249.903 76.552 249.631 76.6613 249.429 76.88C249.231 77.0987 249.133 77.416 249.133 77.832V80H248.133V75.728H249.085V76.272C249.245 76.08 249.445 75.9333 249.685 75.832C249.925 75.7307 250.191 75.68 250.485 75.68C250.805 75.68 251.087 75.7413 251.333 75.864C251.583 75.9813 251.781 76.1573 251.925 76.392C252.101 76.168 252.327 75.9947 252.605 75.872C252.882 75.744 253.189 75.68 253.525 75.68ZM258.922 75.68C259.338 75.68 259.709 75.7707 260.034 75.952C260.365 76.1333 260.624 76.3893 260.81 76.72C260.997 77.0507 261.09 77.432 261.09 77.864C261.09 78.296 260.997 78.68 260.81 79.016C260.624 79.3467 260.365 79.6027 260.034 79.784C259.709 79.9653 259.338 80.056 258.922 80.056C258.629 80.056 258.36 80.0053 258.114 79.904C257.874 79.8027 257.672 79.6507 257.506 79.448V80H256.554V74.064H257.554V76.248C257.725 76.0613 257.925 75.92 258.154 75.824C258.389 75.728 258.645 75.68 258.922 75.68ZM258.81 79.2C259.178 79.2 259.48 79.0773 259.714 78.832C259.954 78.5867 260.074 78.264 260.074 77.864C260.074 77.464 259.954 77.1413 259.714 76.896C259.48 76.6507 259.178 76.528 258.81 76.528C258.57 76.528 258.354 76.584 258.162 76.696C257.97 76.8027 257.818 76.9573 257.706 77.16C257.594 77.3627 257.538 77.5973 257.538 77.864C257.538 78.1307 257.594 78.3653 257.706 78.568C257.818 78.7707 257.97 78.928 258.162 79.04C258.354 79.1467 258.57 79.2 258.81 79.2ZM266.055 77.888C266.055 77.9573 266.049 78.056 266.039 78.184H262.687C262.745 78.4987 262.897 78.7493 263.143 78.936C263.393 79.1173 263.703 79.208 264.071 79.208C264.54 79.208 264.927 79.0533 265.231 78.744L265.767 79.36C265.575 79.5893 265.332 79.7627 265.039 79.88C264.745 79.9973 264.415 80.056 264.047 80.056C263.577 80.056 263.164 79.9627 262.807 79.776C262.449 79.5893 262.172 79.3307 261.975 79C261.783 78.664 261.687 78.2853 261.687 77.864C261.687 77.448 261.78 77.0747 261.967 76.744C262.159 76.408 262.423 76.1467 262.759 75.96C263.095 75.7733 263.473 75.68 263.895 75.68C264.311 75.68 264.681 75.7733 265.007 75.96C265.337 76.1413 265.593 76.4 265.775 76.736C265.961 77.0667 266.055 77.4507 266.055 77.888ZM263.895 76.48C263.575 76.48 263.303 76.576 263.079 76.768C262.86 76.9547 262.727 77.2053 262.679 77.52H265.103C265.06 77.2107 264.929 76.96 264.711 76.768C264.492 76.576 264.22 76.48 263.895 76.48ZM267.967 76.352C268.255 75.904 268.762 75.68 269.487 75.68V76.632C269.402 76.616 269.325 76.608 269.255 76.608C268.866 76.608 268.562 76.7227 268.343 76.952C268.125 77.176 268.015 77.5013 268.015 77.928V80H267.015V75.728H267.967V76.352Z" fill="#606060"/>
<path d="M203.815 103.12C202.965 103.12 202.23 102.995 201.61 102.745C200.99 102.495 200.51 102.14 200.17 101.68C199.83 101.21 199.66 100.66 199.66 100.03C199.66 99.41 199.82 98.885 200.14 98.455C200.47 98.015 200.945 97.685 201.565 97.465C202.185 97.235 202.935 97.12 203.815 97.12C204.695 97.12 205.445 97.235 206.065 97.465C206.695 97.685 207.175 98.015 207.505 98.455C207.835 98.895 208 99.42 208 100.03C208 100.66 207.83 101.21 207.49 101.68C207.15 102.14 206.665 102.495 206.035 102.745C205.405 102.995 204.665 103.12 203.815 103.12ZM203.815 101.905C204.655 101.905 205.31 101.735 205.78 101.395C206.26 101.045 206.5 100.575 206.5 99.985C206.5 99.405 206.26 98.95 205.78 98.62C205.31 98.28 204.655 98.11 203.815 98.11C202.985 98.11 202.335 98.28 201.865 98.62C201.395 98.95 201.16 99.405 201.16 99.985C201.16 100.575 201.395 101.045 201.865 101.395C202.335 101.735 202.985 101.905 203.815 101.905ZM203.815 97.93C203.015 97.93 202.335 97.825 201.775 97.615C201.215 97.395 200.785 97.085 200.485 96.685C200.185 96.275 200.035 95.79 200.035 95.23C200.035 94.64 200.19 94.135 200.5 93.715C200.82 93.285 201.265 92.955 201.835 92.725C202.405 92.495 203.065 92.38 203.815 92.38C204.575 92.38 205.24 92.495 205.81 92.725C206.38 92.955 206.825 93.285 207.145 93.715C207.465 94.135 207.625 94.64 207.625 95.23C207.625 95.79 207.475 96.275 207.175 96.685C206.875 97.085 206.44 97.395 205.87 97.615C205.3 97.825 204.615 97.93 203.815 97.93ZM203.815 96.97C204.545 96.97 205.115 96.82 205.525 96.52C205.945 96.22 206.155 95.81 206.155 95.29C206.155 94.76 205.94 94.345 205.51 94.045C205.08 93.745 204.515 93.595 203.815 93.595C203.115 93.595 202.555 93.745 202.135 94.045C201.725 94.345 201.52 94.76 201.52 95.29C201.52 95.81 201.72 96.22 202.12 96.52C202.53 96.82 203.095 96.97 203.815 96.97ZM209.808 103V101.98L214.083 97.855C214.463 97.495 214.743 97.18 214.923 96.91C215.113 96.63 215.238 96.375 215.298 96.145C215.368 95.905 215.403 95.675 215.403 95.455C215.403 94.915 215.213 94.49 214.833 94.18C214.453 93.87 213.898 93.715 213.168 93.715C212.608 93.715 212.103 93.81 211.653 94C211.203 94.18 210.813 94.465 210.483 94.855L209.463 93.97C209.863 93.46 210.398 93.07 211.068 92.8C211.748 92.52 212.493 92.38 213.303 92.38C214.033 92.38 214.668 92.5 215.208 92.74C215.748 92.97 216.163 93.305 216.453 93.745C216.753 94.185 216.903 94.705 216.903 95.305C216.903 95.645 216.858 95.98 216.768 96.31C216.678 96.64 216.508 96.99 216.258 97.36C216.008 97.73 215.648 98.145 215.178 98.605L211.368 102.28L211.008 101.695H217.353V103H209.808ZM222.592 92.38C223.542 92.38 224.342 92.585 224.992 92.995C225.652 93.405 226.152 94 226.492 94.78C226.832 95.55 227.002 96.495 227.002 97.615C227.002 98.805 226.792 99.81 226.372 100.63C225.952 101.45 225.372 102.07 224.632 102.49C223.892 102.91 223.027 103.12 222.037 103.12C221.547 103.12 221.072 103.07 220.612 102.97C220.162 102.87 219.767 102.715 219.427 102.505L219.997 101.335C220.277 101.515 220.587 101.645 220.927 101.725C221.277 101.795 221.642 101.83 222.022 101.83C223.082 101.83 223.927 101.5 224.557 100.84C225.187 100.17 225.502 99.18 225.502 97.87C225.502 97.66 225.492 97.41 225.472 97.12C225.452 96.83 225.407 96.545 225.337 96.265L225.832 96.775C225.692 97.235 225.457 97.625 225.127 97.945C224.807 98.255 224.417 98.49 223.957 98.65C223.507 98.8 223.012 98.875 222.472 98.875C221.782 98.875 221.167 98.745 220.627 98.485C220.087 98.225 219.662 97.86 219.352 97.39C219.042 96.91 218.887 96.345 218.887 95.695C218.887 95.015 219.047 94.43 219.367 93.94C219.697 93.44 220.142 93.055 220.702 92.785C221.272 92.515 221.902 92.38 222.592 92.38ZM222.652 93.595C222.202 93.595 221.802 93.68 221.452 93.85C221.102 94.02 220.827 94.255 220.627 94.555C220.437 94.855 220.342 95.215 220.342 95.635C220.342 96.255 220.557 96.75 220.987 97.12C221.417 97.48 221.997 97.66 222.727 97.66C223.207 97.66 223.627 97.57 223.987 97.39C224.357 97.21 224.642 96.965 224.842 96.655C225.052 96.345 225.157 96 225.157 95.62C225.157 95.25 225.062 94.915 224.872 94.615C224.682 94.315 224.402 94.07 224.032 93.88C223.662 93.69 223.202 93.595 222.652 93.595ZM230.814 103V93.1L231.459 93.805H228.444V92.5H232.299V103H230.814ZM241.639 103L246.094 93.13L246.484 93.805H240.244L240.994 93.07V95.68H239.554V92.5H247.474V93.52L243.229 103H241.639ZM253.386 103.12C252.566 103.12 251.831 102.91 251.181 102.49C250.541 102.07 250.031 101.46 249.651 100.66C249.281 99.86 249.096 98.89 249.096 97.75C249.096 96.61 249.281 95.64 249.651 94.84C250.031 94.04 250.541 93.43 251.181 93.01C251.831 92.59 252.566 92.38 253.386 92.38C254.196 92.38 254.926 92.59 255.576 93.01C256.226 93.43 256.736 94.04 257.106 94.84C257.476 95.64 257.661 96.61 257.661 97.75C257.661 98.89 257.476 99.86 257.106 100.66C256.736 101.46 256.226 102.07 255.576 102.49C254.926 102.91 254.196 103.12 253.386 103.12ZM253.386 101.785C253.936 101.785 254.416 101.635 254.826 101.335C255.246 101.035 255.571 100.585 255.801 99.985C256.041 99.385 256.161 98.64 256.161 97.75C256.161 96.86 256.041 96.115 255.801 95.515C255.571 94.915 255.246 94.465 254.826 94.165C254.416 93.865 253.936 93.715 253.386 93.715C252.836 93.715 252.351 93.865 251.931 94.165C251.511 94.465 251.181 94.915 250.941 95.515C250.711 96.115 250.596 96.86 250.596 97.75C250.596 98.64 250.711 99.385 250.941 99.985C251.181 100.585 251.511 101.035 251.931 101.335C252.351 101.635 252.836 101.785 253.386 101.785ZM261.471 103V93.1L262.116 93.805H259.101V92.5H262.956V103H261.471ZM267.668 103L272.123 93.13L272.513 93.805H266.273L267.023 93.07V95.68H265.583V92.5H273.503V93.52L269.258 103H267.668ZM275.253 103V101.98L279.528 97.855C279.908 97.495 280.188 97.18 280.368 96.91C280.558 96.63 280.683 96.375 280.743 96.145C280.813 95.905 280.848 95.675 280.848 95.455C280.848 94.915 280.658 94.49 280.278 94.18C279.898 93.87 279.343 93.715 278.613 93.715C278.053 93.715 277.548 93.81 277.098 94C276.648 94.18 276.258 94.465 275.928 94.855L274.908 93.97C275.308 93.46 275.843 93.07 276.513 92.8C277.193 92.52 277.938 92.38 278.748 92.38C279.478 92.38 280.113 92.5 280.653 92.74C281.193 92.97 281.608 93.305 281.898 93.745C282.198 94.185 282.348 94.705 282.348 95.305C282.348 95.645 282.303 95.98 282.213 96.31C282.123 96.64 281.953 96.99 281.703 97.36C281.453 97.73 281.093 98.145 280.623 98.605L276.813 102.28L276.453 101.695H282.798V103H275.253Z" fill="#464646"/>
<path d="M40.166 149L39.022 147.36C38.974 147.365 38.902 147.368 38.806 147.368H37.542V149H36.502V143.4H38.806C39.2913 143.4 39.7127 143.48 40.07 143.64C40.4327 143.8 40.71 144.029 40.902 144.328C41.094 144.627 41.19 144.981 41.19 145.392C41.19 145.813 41.086 146.176 40.878 146.48C40.6753 146.784 40.382 147.011 39.998 147.16L41.286 149H40.166ZM40.142 145.392C40.142 145.035 40.0247 144.76 39.79 144.568C39.5553 144.376 39.2113 144.28 38.758 144.28H37.542V146.512H38.758C39.2113 146.512 39.5553 146.416 39.79 146.224C40.0247 146.027 40.142 145.749 40.142 145.392ZM46.2736 146.888C46.2736 146.957 46.2682 147.056 46.2576 147.184H42.9056C42.9642 147.499 43.1162 147.749 43.3616 147.936C43.6122 148.117 43.9216 148.208 44.2896 148.208C44.7589 148.208 45.1456 148.053 45.4496 147.744L45.9856 148.36C45.7936 148.589 45.5509 148.763 45.2576 148.88C44.9642 148.997 44.6336 149.056 44.2656 149.056C43.7962 149.056 43.3829 148.963 43.0256 148.776C42.6682 148.589 42.3909 148.331 42.1936 148C42.0016 147.664 41.9056 147.285 41.9056 146.864C41.9056 146.448 41.9989 146.075 42.1856 145.744C42.3776 145.408 42.6416 145.147 42.9776 144.96C43.3136 144.773 43.6922 144.68 44.1136 144.68C44.5296 144.68 44.9002 144.773 45.2256 144.96C45.5562 145.141 45.8122 145.4 45.9936 145.736C46.1802 146.067 46.2736 146.451 46.2736 146.888ZM44.1136 145.48C43.7936 145.48 43.5216 145.576 43.2976 145.768C43.0789 145.955 42.9456 146.205 42.8976 146.52H45.3216C45.2789 146.211 45.1482 145.96 44.9296 145.768C44.7109 145.576 44.4389 145.48 44.1136 145.48ZM49.1941 149.056C48.7515 149.056 48.3541 148.963 48.0021 148.776C47.6501 148.589 47.3755 148.331 47.1781 148C46.9808 147.664 46.8821 147.285 46.8821 146.864C46.8821 146.443 46.9808 146.067 47.1781 145.736C47.3755 145.405 47.6475 145.147 47.9941 144.96C48.3461 144.773 48.7461 144.68 49.1941 144.68C49.6155 144.68 49.9835 144.765 50.2981 144.936C50.6181 145.107 50.8581 145.352 51.0181 145.672L50.2501 146.12C50.1275 145.923 49.9728 145.776 49.7861 145.68C49.6048 145.579 49.4048 145.528 49.1861 145.528C48.8128 145.528 48.5035 145.651 48.2581 145.896C48.0128 146.136 47.8901 146.459 47.8901 146.864C47.8901 147.269 48.0101 147.595 48.2501 147.84C48.4955 148.08 48.8075 148.2 49.1861 148.2C49.4048 148.2 49.6048 148.152 49.7861 148.056C49.9728 147.955 50.1275 147.805 50.2501 147.608L51.0181 148.056C50.8528 148.376 50.6101 148.624 50.2901 148.8C49.9755 148.971 49.6101 149.056 49.1941 149.056ZM51.8826 144.728H52.8826V149H51.8826V144.728ZM52.3866 144.024C52.2052 144.024 52.0532 143.968 51.9306 143.856C51.8079 143.739 51.7466 143.595 51.7466 143.424C51.7466 143.253 51.8079 143.112 51.9306 143C52.0532 142.883 52.2052 142.824 52.3866 142.824C52.5679 142.824 52.7199 142.88 52.8426 142.992C52.9652 143.099 53.0266 143.235 53.0266 143.4C53.0266 143.576 52.9652 143.725 52.8426 143.848C52.7252 143.965 52.5732 144.024 52.3866 144.024ZM56.5631 144.68C56.9791 144.68 57.3497 144.771 57.6751 144.952C58.0057 145.133 58.2644 145.389 58.4511 145.72C58.6377 146.051 58.7311 146.432 58.7311 146.864C58.7311 147.296 58.6377 147.68 58.4511 148.016C58.2644 148.347 58.0057 148.603 57.6751 148.784C57.3497 148.965 56.9791 149.056 56.5631 149.056C55.9871 149.056 55.5311 148.864 55.1951 148.48V150.552H54.1951V144.728H55.1471V145.288C55.3124 145.085 55.5151 144.933 55.7551 144.832C56.0004 144.731 56.2697 144.68 56.5631 144.68ZM56.4511 148.2C56.8191 148.2 57.1204 148.077 57.3551 147.832C57.5951 147.587 57.7151 147.264 57.7151 146.864C57.7151 146.464 57.5951 146.141 57.3551 145.896C57.1204 145.651 56.8191 145.528 56.4511 145.528C56.2111 145.528 55.9951 145.584 55.8031 145.696C55.6111 145.803 55.4591 145.957 55.3471 146.16C55.2351 146.363 55.1791 146.597 55.1791 146.864C55.1791 147.131 55.2351 147.365 55.3471 147.568C55.4591 147.771 55.6111 147.928 55.8031 148.04C55.9951 148.147 56.2111 148.2 56.4511 148.2ZM59.6794 144.728H60.6794V149H59.6794V144.728ZM60.1834 144.024C60.0021 144.024 59.8501 143.968 59.7274 143.856C59.6048 143.739 59.5434 143.595 59.5434 143.424C59.5434 143.253 59.6048 143.112 59.7274 143C59.8501 142.883 60.0021 142.824 60.1834 142.824C60.3648 142.824 60.5168 142.88 60.6394 142.992C60.7621 143.099 60.8234 143.235 60.8234 143.4C60.8234 143.576 60.7621 143.725 60.6394 143.848C60.5221 143.965 60.3701 144.024 60.1834 144.024ZM66.0079 146.888C66.0079 146.957 66.0026 147.056 65.9919 147.184H62.6399C62.6986 147.499 62.8506 147.749 63.0959 147.936C63.3466 148.117 63.6559 148.208 64.0239 148.208C64.4933 148.208 64.8799 148.053 65.1839 147.744L65.7199 148.36C65.5279 148.589 65.2853 148.763 64.9919 148.88C64.6986 148.997 64.3679 149.056 63.9999 149.056C63.5306 149.056 63.1173 148.963 62.7599 148.776C62.4026 148.589 62.1253 148.331 61.9279 148C61.7359 147.664 61.6399 147.285 61.6399 146.864C61.6399 146.448 61.7333 146.075 61.9199 145.744C62.1119 145.408 62.3759 145.147 62.7119 144.96C63.0479 144.773 63.4266 144.68 63.8479 144.68C64.2639 144.68 64.6346 144.773 64.9599 144.96C65.2906 145.141 65.5466 145.4 65.7279 145.736C65.9146 146.067 66.0079 146.451 66.0079 146.888ZM63.8479 145.48C63.5279 145.48 63.2559 145.576 63.0319 145.768C62.8133 145.955 62.6799 146.205 62.6319 146.52H65.0559C65.0133 146.211 64.8826 145.96 64.6639 145.768C64.4453 145.576 64.1733 145.48 63.8479 145.48ZM69.3925 144.68C69.9312 144.68 70.3632 144.837 70.6885 145.152C71.0138 145.467 71.1765 145.933 71.1765 146.552V149H70.1765V146.68C70.1765 146.307 70.0885 146.027 69.9125 145.84C69.7365 145.648 69.4858 145.552 69.1605 145.552C68.7925 145.552 68.5018 145.664 68.2885 145.888C68.0752 146.107 67.9685 146.424 67.9685 146.84V149H66.9685V144.728H67.9205V145.28C68.0858 145.083 68.2938 144.933 68.5445 144.832C68.7952 144.731 69.0778 144.68 69.3925 144.68ZM75.0131 148.768C74.8957 148.864 74.7517 148.936 74.5811 148.984C74.4157 149.032 74.2397 149.056 74.0531 149.056C73.5837 149.056 73.2211 148.933 72.9651 148.688C72.7091 148.443 72.5811 148.085 72.5811 147.616V145.56H71.8771V144.76H72.5811V143.784H73.5811V144.76H74.7251V145.56H73.5811V147.592C73.5811 147.8 73.6317 147.96 73.7331 148.072C73.8344 148.179 73.9811 148.232 74.1731 148.232C74.3971 148.232 74.5837 148.173 74.7331 148.056L75.0131 148.768Z" fill="#606060"/>
<path d="M39.86 173V168.98L40.205 169.91L35.69 162.5H37.295L41.09 168.755H40.22L44.03 162.5H45.515L41.015 169.91L41.345 168.98V173H39.86ZM49.3384 173.09C48.5384 173.09 47.8284 172.915 47.2084 172.565C46.5884 172.215 46.0984 171.735 45.7384 171.125C45.3784 170.505 45.1984 169.805 45.1984 169.025C45.1984 168.235 45.3784 167.535 45.7384 166.925C46.0984 166.315 46.5884 165.84 47.2084 165.5C47.8284 165.15 48.5384 164.975 49.3384 164.975C50.1284 164.975 50.8334 165.15 51.4534 165.5C52.0834 165.84 52.5734 166.315 52.9234 166.925C53.2834 167.525 53.4634 168.225 53.4634 169.025C53.4634 169.815 53.2834 170.515 52.9234 171.125C52.5734 171.735 52.0834 172.215 51.4534 172.565C50.8334 172.915 50.1284 173.09 49.3384 173.09ZM49.3384 171.83C49.8484 171.83 50.3034 171.715 50.7034 171.485C51.1134 171.255 51.4334 170.93 51.6634 170.51C51.8934 170.08 52.0084 169.585 52.0084 169.025C52.0084 168.455 51.8934 167.965 51.6634 167.555C51.4334 167.135 51.1134 166.81 50.7034 166.58C50.3034 166.35 49.8484 166.235 49.3384 166.235C48.8284 166.235 48.3734 166.35 47.9734 166.58C47.5734 166.81 47.2534 167.135 47.0134 167.555C46.7734 167.965 46.6534 168.455 46.6534 169.025C46.6534 169.585 46.7734 170.08 47.0134 170.51C47.2534 170.93 47.5734 171.255 47.9734 171.485C48.3734 171.715 48.8284 171.83 49.3384 171.83ZM58.7998 173.09C58.1198 173.09 57.5198 172.965 56.9998 172.715C56.4898 172.465 56.0898 172.085 55.7998 171.575C55.5198 171.055 55.3798 170.405 55.3798 169.625V165.05H56.8198V169.46C56.8198 170.24 57.0048 170.825 57.3748 171.215C57.7548 171.605 58.2848 171.8 58.9648 171.8C59.4648 171.8 59.8998 171.7 60.2698 171.5C60.6398 171.29 60.9248 170.99 61.1248 170.6C61.3248 170.2 61.4248 169.72 61.4248 169.16V165.05H62.8648V173H61.4998V170.855L61.7248 171.425C61.4648 171.955 61.0748 172.365 60.5548 172.655C60.0348 172.945 59.4498 173.09 58.7998 173.09Z" fill="black"/>
<rect x="199" y="142" width="100" height="34" rx="10" fill="#F15211"/>
<path d="M227.732 164.12C227.084 164.12 226.456 164.028 225.848 163.844C225.248 163.66 224.772 163.416 224.42 163.112L224.96 161.9C225.304 162.172 225.724 162.396 226.22 162.572C226.724 162.74 227.228 162.824 227.732 162.824C228.356 162.824 228.82 162.724 229.124 162.524C229.436 162.324 229.592 162.06 229.592 161.732C229.592 161.492 229.504 161.296 229.328 161.144C229.16 160.984 228.944 160.86 228.68 160.772C228.416 160.684 228.056 160.584 227.6 160.472C226.96 160.32 226.44 160.168 226.04 160.016C225.648 159.864 225.308 159.628 225.02 159.308C224.74 158.98 224.6 158.54 224.6 157.988C224.6 157.524 224.724 157.104 224.972 156.728C225.228 156.344 225.608 156.04 226.112 155.816C226.624 155.592 227.248 155.48 227.984 155.48C228.496 155.48 229 155.544 229.496 155.672C229.992 155.8 230.42 155.984 230.78 156.224L230.288 157.436C229.92 157.22 229.536 157.056 229.136 156.944C228.736 156.832 228.348 156.776 227.972 156.776C227.356 156.776 226.896 156.88 226.592 157.088C226.296 157.296 226.148 157.572 226.148 157.916C226.148 158.156 226.232 158.352 226.4 158.504C226.576 158.656 226.796 158.776 227.06 158.864C227.324 158.952 227.684 159.052 228.14 159.164C228.764 159.308 229.276 159.46 229.676 159.62C230.076 159.772 230.416 160.008 230.696 160.328C230.984 160.648 231.128 161.08 231.128 161.624C231.128 162.088 231 162.508 230.744 162.884C230.496 163.26 230.116 163.56 229.604 163.784C229.092 164.008 228.468 164.12 227.732 164.12ZM238.555 160.832C238.555 160.936 238.547 161.084 238.531 161.276H233.503C233.591 161.748 233.819 162.124 234.187 162.404C234.563 162.676 235.027 162.812 235.579 162.812C236.283 162.812 236.863 162.58 237.319 162.116L238.123 163.04C237.835 163.384 237.471 163.644 237.031 163.82C236.591 163.996 236.095 164.084 235.543 164.084C234.839 164.084 234.219 163.944 233.683 163.664C233.147 163.384 232.731 162.996 232.435 162.5C232.147 161.996 232.003 161.428 232.003 160.796C232.003 160.172 232.143 159.612 232.423 159.116C232.711 158.612 233.107 158.22 233.611 157.94C234.115 157.66 234.683 157.52 235.315 157.52C235.939 157.52 236.495 157.66 236.983 157.94C237.479 158.212 237.863 158.6 238.135 159.104C238.415 159.6 238.555 160.176 238.555 160.832ZM235.315 158.72C234.835 158.72 234.427 158.864 234.091 159.152C233.763 159.432 233.563 159.808 233.491 160.28H237.127C237.063 159.816 236.867 159.44 236.539 159.152C236.211 158.864 235.803 158.72 235.315 158.72ZM243.632 157.52C244.44 157.52 245.088 157.756 245.576 158.228C246.064 158.7 246.308 159.4 246.308 160.328V164H244.808V160.52C244.808 159.96 244.676 159.54 244.412 159.26C244.148 158.972 243.772 158.828 243.284 158.828C242.732 158.828 242.296 158.996 241.976 159.332C241.656 159.66 241.496 160.136 241.496 160.76V164H239.996V157.592H241.424V158.42C241.672 158.124 241.984 157.9 242.36 157.748C242.736 157.596 243.16 157.52 243.632 157.52ZM254.545 155.096V164H253.105V163.172C252.857 163.476 252.549 163.704 252.181 163.856C251.821 164.008 251.421 164.084 250.981 164.084C250.365 164.084 249.809 163.948 249.313 163.676C248.825 163.404 248.441 163.02 248.161 162.524C247.881 162.02 247.741 161.444 247.741 160.796C247.741 160.148 247.881 159.576 248.161 159.08C248.441 158.584 248.825 158.2 249.313 157.928C249.809 157.656 250.365 157.52 250.981 157.52C251.405 157.52 251.793 157.592 252.145 157.736C252.497 157.88 252.797 158.096 253.045 158.384V155.096H254.545ZM251.161 162.8C251.521 162.8 251.845 162.72 252.133 162.56C252.421 162.392 252.649 162.156 252.817 161.852C252.985 161.548 253.069 161.196 253.069 160.796C253.069 160.396 252.985 160.044 252.817 159.74C252.649 159.436 252.421 159.204 252.133 159.044C251.845 158.876 251.521 158.792 251.161 158.792C250.801 158.792 250.477 158.876 250.189 159.044C249.901 159.204 249.673 159.436 249.505 159.74C249.337 160.044 249.253 160.396 249.253 160.796C249.253 161.196 249.337 161.548 249.505 161.852C249.673 162.156 249.901 162.392 250.189 162.56C250.477 162.72 250.801 162.8 251.161 162.8Z" fill="white"/>
<path d="M275 155L270.05 159.95" stroke="white" stroke-linecap="round" stroke-linejoin="round"/>
<path d="M275 155L271.85 164L270.05 159.95L266 158.15L275 155Z" stroke="white" stroke-linecap="round" stroke-linejoin="round"/>
</svg>
