<svg viewBox="0 0 352 204" fill="none" xmlns="http://www.w3.org/2000/svg">
<rect x="0.909668" width="351" height="204" rx="25" fill="white"/>
<path d="M41.0075 48C38.6063 48 36.6597 45.9853 36.6597 43.5C36.6597 41.0147 38.6063 39 41.0075 39H56.3118C58.7131 39 60.6597 36.9853 60.6597 34.5C60.6597 32.0147 58.7131 30 56.3118 30" stroke="black" stroke-width="2.5" stroke-linecap="round"/>
<path d="M56.9597 96.315C56.9597 98.1583 56.2597 99.7217 54.8597 101.005C53.483 102.288 51.4763 103.035 48.8397 103.245V107.2H46.5997V103.245C44.8963 103.152 43.2747 102.837 41.7347 102.3C40.218 101.74 39.0047 101.04 38.0947 100.2L39.3897 97.47C40.2297 98.24 41.2913 98.8817 42.5747 99.395C43.858 99.885 45.1997 100.177 46.5997 100.27V92.15C44.9663 91.7533 43.6013 91.3217 42.5047 90.855C41.4313 90.3883 40.5213 89.7 39.7747 88.79C39.0513 87.88 38.6897 86.69 38.6897 85.22C38.6897 83.3767 39.3547 81.8133 40.6847 80.53C42.038 79.2467 44.0097 78.5 46.5997 78.29V74.3H48.8397V78.255C50.1697 78.3017 51.453 78.5117 52.6897 78.885C53.9497 79.2583 55.0347 79.76 55.9447 80.39L54.7897 83.19C52.8997 82 50.9163 81.3467 48.8397 81.23V89.385C50.543 89.805 51.943 90.2483 53.0397 90.715C54.1363 91.1583 55.058 91.835 55.8047 92.745C56.5747 93.6317 56.9597 94.8217 56.9597 96.315ZM42.1197 85.08C42.1197 86.0833 42.5047 86.865 43.2747 87.425C44.0447 87.985 45.153 88.4517 46.5997 88.825V81.265C45.1063 81.4517 43.9863 81.895 43.2397 82.595C42.493 83.2717 42.1197 84.1 42.1197 85.08ZM48.8397 100.235C50.403 100.095 51.5697 99.6983 52.3397 99.045C53.133 98.3683 53.5297 97.5283 53.5297 96.525C53.5297 95.4983 53.1213 94.7167 52.3047 94.18C51.5113 93.62 50.3563 93.13 48.8397 92.71V100.235ZM70.648 88.125C72.258 88.125 73.693 88.4283 74.9529 89.035C76.2363 89.6417 77.2396 90.5167 77.9629 91.66C78.6863 92.78 79.048 94.075 79.048 95.545C79.048 97.085 78.663 98.4383 77.893 99.605C77.1463 100.772 76.108 101.682 74.778 102.335C73.4713 102.965 72.0013 103.28 70.3679 103.28C67.0779 103.28 64.5346 102.218 62.7379 100.095C60.9646 97.9717 60.0779 94.9617 60.0779 91.065C60.0779 88.335 60.5563 86.0133 61.5129 84.1C62.4929 82.1633 63.8463 80.705 65.5729 79.725C67.3229 78.7217 69.3529 78.22 71.6629 78.22C72.8529 78.22 73.9729 78.3483 75.023 78.605C76.073 78.8383 76.983 79.1883 77.753 79.655L76.423 82.385C75.2563 81.615 73.693 81.23 71.7329 81.23C69.1896 81.23 67.1946 82.0233 65.7479 83.61C64.3013 85.1733 63.5779 87.46 63.5779 90.47C63.5779 90.8433 63.5896 91.135 63.6129 91.345C64.3129 90.295 65.2696 89.5017 66.4829 88.965C67.7196 88.405 69.1079 88.125 70.648 88.125ZM70.228 100.445C71.8379 100.445 73.1446 100.013 74.1479 99.15C75.1513 98.2867 75.653 97.1317 75.653 95.685C75.653 94.2383 75.1396 93.095 74.113 92.255C73.1096 91.3917 71.7563 90.96 70.0529 90.96C68.9563 90.96 67.9763 91.17 67.1129 91.59C66.2729 92.01 65.6079 92.5817 65.1179 93.305C64.6513 94.0283 64.4179 94.8333 64.4179 95.72C64.4179 96.5833 64.6396 97.3767 65.0829 98.1C65.5496 98.8 66.2146 99.3717 67.0779 99.815C67.9646 100.235 69.0146 100.445 70.228 100.445ZM88.6795 88.265C92.1795 88.265 94.7462 88.93 96.3795 90.26C98.0362 91.5667 98.8645 93.3633 98.8645 95.65C98.8645 97.0967 98.5145 98.4033 97.8145 99.57C97.1378 100.713 96.0995 101.623 94.6995 102.3C93.3228 102.953 91.6195 103.28 89.5895 103.28C87.8628 103.28 86.1945 103.023 84.5845 102.51C82.9745 101.973 81.6445 101.238 80.5945 100.305L82.2045 97.54C83.0445 98.3333 84.1178 98.975 85.4245 99.465C86.7312 99.9317 88.1078 100.165 89.5545 100.165C91.3978 100.165 92.8212 99.78 93.8245 99.01C94.8512 98.2167 95.3645 97.1433 95.3645 95.79C95.3645 94.32 94.8045 93.2117 93.6845 92.465C92.5645 91.695 90.6512 91.31 87.9445 91.31H82.3795L83.6745 78.5H97.4995V81.545H86.6145L85.9495 88.265H88.6795ZM111.787 103.28C109.851 103.28 108.124 102.79 106.607 101.81C105.114 100.807 103.936 99.36 103.072 97.47C102.209 95.58 101.777 93.34 101.777 90.75C101.777 88.16 102.209 85.92 103.072 84.03C103.936 82.14 105.114 80.705 106.607 79.725C108.124 78.7217 109.851 78.22 111.787 78.22C113.701 78.22 115.404 78.7217 116.897 79.725C118.414 80.705 119.604 82.14 120.467 84.03C121.331 85.92 121.762 88.16 121.762 90.75C121.762 93.34 121.331 95.58 120.467 97.47C119.604 99.36 118.414 100.807 116.897 101.81C115.404 102.79 113.701 103.28 111.787 103.28ZM111.787 100.165C113.747 100.165 115.311 99.36 116.477 97.75C117.667 96.14 118.262 93.8067 118.262 90.75C118.262 87.6933 117.667 85.36 116.477 83.75C115.311 82.14 113.747 81.335 111.787 81.335C109.804 81.335 108.217 82.14 107.027 83.75C105.861 85.36 105.277 87.6933 105.277 90.75C105.277 93.8067 105.861 96.14 107.027 97.75C108.217 99.36 109.804 100.165 111.787 100.165Z" fill="black"/>
<path d="M202.148 38.08C201.716 38.08 201.297 38.0187 200.892 37.896C200.492 37.7733 200.174 37.6107 199.94 37.408L200.3 36.6C200.529 36.7813 200.809 36.9307 201.14 37.048C201.476 37.16 201.812 37.216 202.148 37.216C202.564 37.216 202.873 37.1493 203.076 37.016C203.284 36.8827 203.388 36.7067 203.388 36.488C203.388 36.328 203.329 36.1973 203.212 36.096C203.1 35.9893 202.956 35.9067 202.78 35.848C202.604 35.7893 202.364 35.7227 202.06 35.648C201.633 35.5467 201.286 35.4453 201.02 35.344C200.758 35.2427 200.532 35.0853 200.34 34.872C200.153 34.6533 200.06 34.36 200.06 33.992C200.06 33.6827 200.142 33.4027 200.308 33.152C200.478 32.896 200.732 32.6933 201.068 32.544C201.409 32.3947 201.825 32.32 202.316 32.32C202.657 32.32 202.993 32.3627 203.324 32.448C203.654 32.5333 203.94 32.656 204.18 32.816L203.852 33.624C203.606 33.48 203.35 33.3707 203.084 33.296C202.817 33.2213 202.558 33.184 202.308 33.184C201.897 33.184 201.59 33.2533 201.388 33.392C201.19 33.5307 201.092 33.7147 201.092 33.944C201.092 34.104 201.148 34.2347 201.26 34.336C201.377 34.4373 201.524 34.5173 201.7 34.576C201.876 34.6347 202.116 34.7013 202.42 34.776C202.836 34.872 203.177 34.9733 203.444 35.08C203.71 35.1813 203.937 35.3387 204.124 35.552C204.316 35.7653 204.412 36.0533 204.412 36.416C204.412 36.7253 204.326 37.0053 204.156 37.256C203.99 37.5067 203.737 37.7067 203.396 37.856C203.054 38.0053 202.638 38.08 202.148 38.08ZM209.643 37.128V38H205.443V32.4H209.531V33.272H206.483V34.728H209.187V35.584H206.483V37.128H209.643ZM215.778 32.4V38H214.922L211.834 34.208V38H210.802V32.4H211.658L214.746 36.192V32.4H215.778ZM217.279 32.4H219.727C220.324 32.4 220.855 32.5173 221.319 32.752C221.783 32.9813 222.143 33.3093 222.399 33.736C222.655 34.1573 222.783 34.6453 222.783 35.2C222.783 35.7547 222.655 36.2453 222.399 36.672C222.143 37.0933 221.783 37.4213 221.319 37.656C220.855 37.8853 220.324 38 219.727 38H217.279V32.4ZM219.679 37.12C220.09 37.12 220.45 37.0427 220.759 36.888C221.074 36.728 221.314 36.504 221.479 36.216C221.65 35.9227 221.735 35.584 221.735 35.2C221.735 34.816 221.65 34.48 221.479 34.192C221.314 33.8987 221.074 33.6747 220.759 33.52C220.45 33.36 220.09 33.28 219.679 33.28H218.319V37.12H219.679ZM223.888 32.4H224.928V38H223.888V32.4ZM231.419 32.4V38H230.563L227.475 34.208V38H226.443V32.4H227.299L230.387 36.192V32.4H231.419ZM236.743 35.136H237.727V37.368C237.439 37.5973 237.103 37.7733 236.719 37.896C236.335 38.0187 235.941 38.08 235.535 38.08C234.965 38.08 234.45 37.9573 233.991 37.712C233.533 37.4613 233.173 37.1173 232.911 36.68C232.65 36.2427 232.519 35.7493 232.519 35.2C232.519 34.6507 232.65 34.1573 232.911 33.72C233.173 33.2827 233.533 32.9413 233.991 32.696C234.455 32.4453 234.975 32.32 235.551 32.32C236.021 32.32 236.447 32.3973 236.831 32.552C237.215 32.7067 237.538 32.9333 237.799 33.232L237.143 33.872C236.717 33.4453 236.202 33.232 235.599 33.232C235.205 33.232 234.853 33.3147 234.543 33.48C234.239 33.6453 233.999 33.8773 233.823 34.176C233.653 34.4747 233.567 34.816 233.567 35.2C233.567 35.5733 233.653 35.9093 233.823 36.208C233.999 36.5067 234.239 36.7413 234.543 36.912C234.853 37.0827 235.202 37.168 235.591 37.168C236.029 37.168 236.413 37.072 236.743 36.88V35.136Z" fill="#AAAAAA"/>
<path d="M246.91 34L249.91 37L252.91 34" stroke="#AAAAAA" stroke-linecap="round" stroke-linejoin="round"/>
<path d="M204.044 78.704H201.244L200.692 80H199.62L202.14 74.4H203.164L205.692 80H204.604L204.044 78.704ZM203.7 77.888L202.644 75.44L201.596 77.888H203.7ZM208.229 80.056C207.786 80.056 207.389 79.9627 207.037 79.776C206.685 79.5893 206.41 79.3307 206.213 79C206.015 78.664 205.917 78.2853 205.917 77.864C205.917 77.4427 206.015 77.0667 206.213 76.736C206.41 76.4053 206.682 76.1467 207.029 75.96C207.381 75.7733 207.781 75.68 208.229 75.68C208.65 75.68 209.018 75.7653 209.333 75.936C209.653 76.1067 209.893 76.352 210.053 76.672L209.285 77.12C209.162 76.9227 209.007 76.776 208.821 76.68C208.639 76.5787 208.439 76.528 208.221 76.528C207.847 76.528 207.538 76.6507 207.293 76.896C207.047 77.136 206.925 77.4587 206.925 77.864C206.925 78.2693 207.045 78.5947 207.285 78.84C207.53 79.08 207.842 79.2 208.221 79.2C208.439 79.2 208.639 79.152 208.821 79.056C209.007 78.9547 209.162 78.8053 209.285 78.608L210.053 79.056C209.887 79.376 209.645 79.624 209.325 79.8C209.01 79.9707 208.645 80.056 208.229 80.056ZM212.815 80.056C212.372 80.056 211.975 79.9627 211.623 79.776C211.271 79.5893 210.996 79.3307 210.799 79C210.601 78.664 210.503 78.2853 210.503 77.864C210.503 77.4427 210.601 77.0667 210.799 76.736C210.996 76.4053 211.268 76.1467 211.615 75.96C211.967 75.7733 212.367 75.68 212.815 75.68C213.236 75.68 213.604 75.7653 213.919 75.936C214.239 76.1067 214.479 76.352 214.639 76.672L213.871 77.12C213.748 76.9227 213.593 76.776 213.407 76.68C213.225 76.5787 213.025 76.528 212.807 76.528C212.433 76.528 212.124 76.6507 211.879 76.896C211.633 77.136 211.511 77.4587 211.511 77.864C211.511 78.2693 211.631 78.5947 211.871 78.84C212.116 79.08 212.428 79.2 212.807 79.2C213.025 79.2 213.225 79.152 213.407 79.056C213.593 78.9547 213.748 78.8053 213.871 78.608L214.639 79.056C214.473 79.376 214.231 79.624 213.911 79.8C213.596 79.9707 213.231 80.056 212.815 80.056ZM217.361 80.056C216.929 80.056 216.539 79.9627 216.193 79.776C215.846 79.5893 215.574 79.3307 215.377 79C215.185 78.664 215.089 78.2853 215.089 77.864C215.089 77.4427 215.185 77.0667 215.377 76.736C215.574 76.4053 215.846 76.1467 216.193 75.96C216.539 75.7733 216.929 75.68 217.361 75.68C217.798 75.68 218.19 75.7733 218.537 75.96C218.883 76.1467 219.153 76.4053 219.345 76.736C219.542 77.0667 219.641 77.4427 219.641 77.864C219.641 78.2853 219.542 78.664 219.345 79C219.153 79.3307 218.883 79.5893 218.537 79.776C218.19 79.9627 217.798 80.056 217.361 80.056ZM217.361 79.2C217.729 79.2 218.033 79.0773 218.273 78.832C218.513 78.5867 218.633 78.264 218.633 77.864C218.633 77.464 218.513 77.1413 218.273 76.896C218.033 76.6507 217.729 76.528 217.361 76.528C216.993 76.528 216.689 76.6507 216.449 76.896C216.214 77.1413 216.097 77.464 216.097 77.864C216.097 78.264 216.214 78.5867 216.449 78.832C216.689 79.0773 216.993 79.2 217.361 79.2ZM224.733 75.728V80H223.781V79.456C223.621 79.648 223.421 79.7973 223.181 79.904C222.941 80.0053 222.682 80.056 222.405 80.056C221.834 80.056 221.384 79.8987 221.053 79.584C220.728 79.264 220.565 78.792 220.565 78.168V75.728H221.565V78.032C221.565 78.416 221.65 78.704 221.821 78.896C221.997 79.0827 222.245 79.176 222.565 79.176C222.922 79.176 223.205 79.0667 223.413 78.848C223.626 78.624 223.733 78.304 223.733 77.888V75.728H224.733ZM228.466 75.68C229.005 75.68 229.437 75.8373 229.762 76.152C230.088 76.4667 230.25 76.9333 230.25 77.552V80H229.25V77.68C229.25 77.3067 229.162 77.0267 228.986 76.84C228.81 76.648 228.56 76.552 228.234 76.552C227.866 76.552 227.576 76.664 227.362 76.888C227.149 77.1067 227.042 77.424 227.042 77.84V80H226.042V75.728H226.994V76.28C227.16 76.0827 227.368 75.9333 227.618 75.832C227.869 75.7307 228.152 75.68 228.466 75.68ZM234.087 79.768C233.969 79.864 233.825 79.936 233.655 79.984C233.489 80.032 233.313 80.056 233.127 80.056C232.657 80.056 232.295 79.9333 232.039 79.688C231.783 79.4427 231.655 79.0853 231.655 78.616V76.56H230.951V75.76H231.655V74.784H232.655V75.76H233.799V76.56H232.655V78.592C232.655 78.8 232.705 78.96 232.807 79.072C232.908 79.1787 233.055 79.232 233.247 79.232C233.471 79.232 233.657 79.1733 233.807 79.056L234.087 79.768ZM242.192 74.4V80H241.336L238.248 76.208V80H237.216V74.4H238.072L241.16 78.192V74.4H242.192ZM247.733 75.728V80H246.781V79.456C246.621 79.648 246.421 79.7973 246.181 79.904C245.941 80.0053 245.682 80.056 245.405 80.056C244.834 80.056 244.384 79.8987 244.053 79.584C243.728 79.264 243.565 78.792 243.565 78.168V75.728H244.565V78.032C244.565 78.416 244.65 78.704 244.821 78.896C244.997 79.0827 245.245 79.176 245.565 79.176C245.922 79.176 246.205 79.0667 246.413 78.848C246.626 78.624 246.733 78.304 246.733 77.888V75.728H247.733ZM254.434 75.68C254.973 75.68 255.4 75.8373 255.714 76.152C256.029 76.4613 256.186 76.928 256.186 77.552V80H255.186V77.68C255.186 77.3067 255.104 77.0267 254.938 76.84C254.773 76.648 254.536 76.552 254.226 76.552C253.89 76.552 253.621 76.664 253.418 76.888C253.216 77.1067 253.114 77.4213 253.114 77.832V80H252.114V77.68C252.114 77.3067 252.032 77.0267 251.866 76.84C251.701 76.648 251.464 76.552 251.154 76.552C250.813 76.552 250.541 76.6613 250.338 76.88C250.141 77.0987 250.042 77.416 250.042 77.832V80H249.042V75.728H249.994V76.272C250.154 76.08 250.354 75.9333 250.594 75.832C250.834 75.7307 251.101 75.68 251.394 75.68C251.714 75.68 251.997 75.7413 252.242 75.864C252.493 75.9813 252.69 76.1573 252.834 76.392C253.01 76.168 253.237 75.9947 253.514 75.872C253.792 75.744 254.098 75.68 254.434 75.68ZM259.832 75.68C260.248 75.68 260.619 75.7707 260.944 75.952C261.275 76.1333 261.533 76.3893 261.72 76.72C261.907 77.0507 262 77.432 262 77.864C262 78.296 261.907 78.68 261.72 79.016C261.533 79.3467 261.275 79.6027 260.944 79.784C260.619 79.9653 260.248 80.056 259.832 80.056C259.539 80.056 259.269 80.0053 259.024 79.904C258.784 79.8027 258.581 79.6507 258.416 79.448V80H257.464V74.064H258.464V76.248C258.635 76.0613 258.835 75.92 259.064 75.824C259.299 75.728 259.555 75.68 259.832 75.68ZM259.72 79.2C260.088 79.2 260.389 79.0773 260.624 78.832C260.864 78.5867 260.984 78.264 260.984 77.864C260.984 77.464 260.864 77.1413 260.624 76.896C260.389 76.6507 260.088 76.528 259.72 76.528C259.48 76.528 259.264 76.584 259.072 76.696C258.88 76.8027 258.728 76.9573 258.616 77.16C258.504 77.3627 258.448 77.5973 258.448 77.864C258.448 78.1307 258.504 78.3653 258.616 78.568C258.728 78.7707 258.88 78.928 259.072 79.04C259.264 79.1467 259.48 79.2 259.72 79.2ZM266.964 77.888C266.964 77.9573 266.959 78.056 266.948 78.184H263.596C263.655 78.4987 263.807 78.7493 264.052 78.936C264.303 79.1173 264.612 79.208 264.98 79.208C265.45 79.208 265.836 79.0533 266.14 78.744L266.676 79.36C266.484 79.5893 266.242 79.7627 265.948 79.88C265.655 79.9973 265.324 80.056 264.956 80.056C264.487 80.056 264.074 79.9627 263.716 79.776C263.359 79.5893 263.082 79.3307 262.884 79C262.692 78.664 262.596 78.2853 262.596 77.864C262.596 77.448 262.69 77.0747 262.876 76.744C263.068 76.408 263.332 76.1467 263.668 75.96C264.004 75.7733 264.383 75.68 264.804 75.68C265.22 75.68 265.591 75.7733 265.916 75.96C266.247 76.1413 266.503 76.4 266.684 76.736C266.871 77.0667 266.964 77.4507 266.964 77.888ZM264.804 76.48C264.484 76.48 264.212 76.576 263.988 76.768C263.77 76.9547 263.636 77.2053 263.588 77.52H266.012C265.97 77.2107 265.839 76.96 265.62 76.768C265.402 76.576 265.13 76.48 264.804 76.48ZM268.877 76.352C269.165 75.904 269.672 75.68 270.397 75.68V76.632C270.312 76.616 270.234 76.608 270.165 76.608C269.776 76.608 269.472 76.7227 269.253 76.952C269.034 77.176 268.925 77.5013 268.925 77.928V80H267.925V75.728H268.877V76.352Z" fill="#606060"/>
<path d="M209.765 100.42H207.77V103H206.315V100.42H200.48V99.37L205.85 92.5H207.47L202.325 99.13H206.36V96.85H207.77V99.13H209.765V100.42ZM215.794 96.625C216.484 96.625 217.099 96.755 217.639 97.015C218.189 97.275 218.619 97.65 218.929 98.14C219.239 98.62 219.394 99.175 219.394 99.805C219.394 100.465 219.229 101.045 218.899 101.545C218.579 102.045 218.134 102.435 217.564 102.715C217.004 102.985 216.374 103.12 215.674 103.12C214.264 103.12 213.174 102.665 212.404 101.755C211.644 100.845 211.264 99.555 211.264 97.885C211.264 96.715 211.469 95.72 211.879 94.9C212.299 94.07 212.879 93.445 213.619 93.025C214.369 92.595 215.239 92.38 216.229 92.38C216.739 92.38 217.219 92.435 217.669 92.545C218.119 92.645 218.509 92.795 218.839 92.995L218.269 94.165C217.769 93.835 217.099 93.67 216.259 93.67C215.169 93.67 214.314 94.01 213.694 94.69C213.074 95.36 212.764 96.34 212.764 97.63C212.764 97.79 212.769 97.915 212.779 98.005C213.079 97.555 213.489 97.215 214.009 96.985C214.539 96.745 215.134 96.625 215.794 96.625ZM215.614 101.905C216.304 101.905 216.864 101.72 217.294 101.35C217.724 100.98 217.939 100.485 217.939 99.865C217.939 99.245 217.719 98.755 217.279 98.395C216.849 98.025 216.269 97.84 215.539 97.84C215.069 97.84 214.649 97.93 214.279 98.11C213.919 98.29 213.634 98.535 213.424 98.845C213.224 99.155 213.124 99.5 213.124 99.88C213.124 100.25 213.219 100.59 213.409 100.9C213.609 101.2 213.894 101.445 214.264 101.635C214.644 101.815 215.094 101.905 215.614 101.905ZM224.527 92.38C225.937 92.38 227.022 92.835 227.782 93.745C228.552 94.655 228.937 95.945 228.937 97.615C228.937 98.785 228.727 99.785 228.307 100.615C227.897 101.435 227.317 102.06 226.567 102.49C225.827 102.91 224.962 103.12 223.972 103.12C223.462 103.12 222.982 103.07 222.532 102.97C222.082 102.86 221.692 102.705 221.362 102.505L221.932 101.335C222.442 101.665 223.117 101.83 223.957 101.83C225.047 101.83 225.897 101.495 226.507 100.825C227.127 100.145 227.437 99.16 227.437 97.87V97.495C227.137 97.945 226.722 98.29 226.192 98.53C225.662 98.76 225.067 98.875 224.407 98.875C223.717 98.875 223.097 98.745 222.547 98.485C222.007 98.225 221.582 97.855 221.272 97.375C220.972 96.885 220.822 96.325 220.822 95.695C220.822 95.035 220.982 94.455 221.302 93.955C221.632 93.455 222.077 93.07 222.637 92.8C223.197 92.52 223.827 92.38 224.527 92.38ZM224.662 97.66C225.132 97.66 225.552 97.57 225.922 97.39C226.292 97.21 226.577 96.965 226.777 96.655C226.987 96.345 227.092 96 227.092 95.62C227.092 95.25 226.992 94.915 226.792 94.615C226.602 94.305 226.317 94.06 225.937 93.88C225.567 93.69 225.117 93.595 224.587 93.595C223.897 93.595 223.337 93.78 222.907 94.15C222.487 94.52 222.277 95.015 222.277 95.635C222.277 96.255 222.492 96.75 222.922 97.12C223.352 97.48 223.932 97.66 224.662 97.66ZM238.316 101.695V103H230.771V101.98L235.046 97.855C235.566 97.355 235.916 96.925 236.096 96.565C236.276 96.195 236.366 95.825 236.366 95.455C236.366 94.905 236.171 94.48 235.781 94.18C235.401 93.87 234.851 93.715 234.131 93.715C232.971 93.715 232.076 94.095 231.446 94.855L230.426 93.97C230.836 93.47 231.371 93.08 232.031 92.8C232.701 92.52 233.446 92.38 234.266 92.38C235.366 92.38 236.241 92.645 236.891 93.175C237.541 93.695 237.866 94.405 237.866 95.305C237.866 95.865 237.746 96.395 237.506 96.895C237.266 97.395 236.811 97.965 236.141 98.605L232.931 101.695H238.316ZM247.777 96.685C249.277 96.685 250.377 96.97 251.077 97.54C251.787 98.1 252.142 98.87 252.142 99.85C252.142 100.47 251.992 101.03 251.692 101.53C251.402 102.02 250.957 102.41 250.357 102.7C249.767 102.98 249.037 103.12 248.167 103.12C247.427 103.12 246.712 103.01 246.022 102.79C245.332 102.56 244.762 102.245 244.312 101.845L245.002 100.66C245.362 101 245.822 101.275 246.382 101.485C246.942 101.685 247.532 101.785 248.152 101.785C248.942 101.785 249.552 101.62 249.982 101.29C250.422 100.95 250.642 100.49 250.642 99.91C250.642 99.28 250.402 98.805 249.922 98.485C249.442 98.155 248.622 97.99 247.462 97.99H245.077L245.632 92.5H251.557V93.805H246.892L246.607 96.685H247.777ZM258.28 103.12C257.45 103.12 256.71 102.91 256.06 102.49C255.42 102.06 254.915 101.44 254.545 100.63C254.175 99.82 253.99 98.86 253.99 97.75C253.99 96.64 254.175 95.68 254.545 94.87C254.915 94.06 255.42 93.445 256.06 93.025C256.71 92.595 257.45 92.38 258.28 92.38C259.1 92.38 259.83 92.595 260.47 93.025C261.12 93.445 261.63 94.06 262 94.87C262.37 95.68 262.555 96.64 262.555 97.75C262.555 98.86 262.37 99.82 262 100.63C261.63 101.44 261.12 102.06 260.47 102.49C259.83 102.91 259.1 103.12 258.28 103.12ZM258.28 101.785C259.12 101.785 259.79 101.44 260.29 100.75C260.8 100.06 261.055 99.06 261.055 97.75C261.055 96.44 260.8 95.44 260.29 94.75C259.79 94.06 259.12 93.715 258.28 93.715C257.43 93.715 256.75 94.06 256.24 94.75C255.74 95.44 255.49 96.44 255.49 97.75C255.49 99.06 255.74 100.06 256.24 100.75C256.75 101.44 257.43 101.785 258.28 101.785ZM267.806 92.5V103H266.321V93.805H263.951V92.5H267.806ZM275.233 96.625C275.923 96.625 276.538 96.755 277.078 97.015C277.628 97.275 278.058 97.65 278.368 98.14C278.678 98.62 278.833 99.175 278.833 99.805C278.833 100.465 278.668 101.045 278.338 101.545C278.018 102.045 277.573 102.435 277.003 102.715C276.443 102.985 275.813 103.12 275.113 103.12C273.703 103.12 272.613 102.665 271.843 101.755C271.083 100.845 270.703 99.555 270.703 97.885C270.703 96.715 270.908 95.72 271.318 94.9C271.738 94.07 272.318 93.445 273.058 93.025C273.808 92.595 274.678 92.38 275.668 92.38C276.178 92.38 276.658 92.435 277.108 92.545C277.558 92.645 277.948 92.795 278.278 92.995L277.708 94.165C277.208 93.835 276.538 93.67 275.698 93.67C274.608 93.67 273.753 94.01 273.133 94.69C272.513 95.36 272.203 96.34 272.203 97.63C272.203 97.79 272.208 97.915 272.218 98.005C272.518 97.555 272.928 97.215 273.448 96.985C273.978 96.745 274.573 96.625 275.233 96.625ZM275.053 101.905C275.743 101.905 276.303 101.72 276.733 101.35C277.163 100.98 277.378 100.485 277.378 99.865C277.378 99.245 277.158 98.755 276.718 98.395C276.288 98.025 275.708 97.84 274.978 97.84C274.508 97.84 274.088 97.93 273.718 98.11C273.358 98.29 273.073 98.535 272.863 98.845C272.663 99.155 272.563 99.5 272.563 99.88C272.563 100.25 272.658 100.59 272.848 100.9C273.048 101.2 273.333 101.445 273.703 101.635C274.083 101.815 274.533 101.905 275.053 101.905ZM284.581 96.91C285.611 97.01 286.396 97.33 286.936 97.87C287.476 98.4 287.746 99.08 287.746 99.91C287.746 100.51 287.596 101.055 287.296 101.545C286.996 102.025 286.546 102.41 285.946 102.7C285.356 102.98 284.631 103.12 283.771 103.12C283.021 103.12 282.301 103.01 281.611 102.79C280.921 102.56 280.356 102.245 279.916 101.845L280.606 100.66C280.966 101 281.426 101.275 281.986 101.485C282.546 101.685 283.141 101.785 283.771 101.785C284.551 101.785 285.156 101.62 285.586 101.29C286.026 100.96 286.246 100.505 286.246 99.925C286.246 99.345 286.031 98.895 285.601 98.575C285.171 98.255 284.521 98.095 283.651 98.095H282.811V97.045L285.451 93.805H280.396V92.5H287.326V93.52L284.581 96.91Z" fill="#464646"/>
<path d="M41.0757 149L39.9317 147.36C39.8837 147.365 39.8117 147.368 39.7157 147.368H38.4517V149H37.4117V143.4H39.7157C40.201 143.4 40.6223 143.48 40.9797 143.64C41.3423 143.8 41.6197 144.029 41.8117 144.328C42.0037 144.627 42.0997 144.981 42.0997 145.392C42.0997 145.813 41.9957 146.176 41.7877 146.48C41.585 146.784 41.2917 147.011 40.9077 147.16L42.1957 149H41.0757ZM41.0517 145.392C41.0517 145.035 40.9343 144.76 40.6997 144.568C40.465 144.376 40.121 144.28 39.6677 144.28H38.4517V146.512H39.6677C40.121 146.512 40.465 146.416 40.6997 146.224C40.9343 146.027 41.0517 145.749 41.0517 145.392ZM47.1832 146.888C47.1832 146.957 47.1779 147.056 47.1672 147.184H43.8152C43.8739 147.499 44.0259 147.749 44.2712 147.936C44.5219 148.117 44.8312 148.208 45.1992 148.208C45.6686 148.208 46.0552 148.053 46.3592 147.744L46.8952 148.36C46.7032 148.589 46.4606 148.763 46.1672 148.88C45.8739 148.997 45.5432 149.056 45.1752 149.056C44.7059 149.056 44.2926 148.963 43.9352 148.776C43.5779 148.589 43.3006 148.331 43.1032 148C42.9112 147.664 42.8152 147.285 42.8152 146.864C42.8152 146.448 42.9086 146.075 43.0952 145.744C43.2872 145.408 43.5512 145.147 43.8872 144.96C44.2232 144.773 44.6019 144.68 45.0232 144.68C45.4392 144.68 45.8099 144.773 46.1352 144.96C46.4659 145.141 46.7219 145.4 46.9032 145.736C47.0899 146.067 47.1832 146.451 47.1832 146.888ZM45.0232 145.48C44.7032 145.48 44.4312 145.576 44.2072 145.768C43.9886 145.955 43.8552 146.205 43.8072 146.52H46.2312C46.1886 146.211 46.0579 145.96 45.8392 145.768C45.6206 145.576 45.3486 145.48 45.0232 145.48ZM50.1038 149.056C49.6611 149.056 49.2638 148.963 48.9118 148.776C48.5598 148.589 48.2851 148.331 48.0878 148C47.8905 147.664 47.7918 147.285 47.7918 146.864C47.7918 146.443 47.8905 146.067 48.0878 145.736C48.2851 145.405 48.5571 145.147 48.9038 144.96C49.2558 144.773 49.6558 144.68 50.1038 144.68C50.5251 144.68 50.8931 144.765 51.2078 144.936C51.5278 145.107 51.7678 145.352 51.9278 145.672L51.1598 146.12C51.0371 145.923 50.8825 145.776 50.6958 145.68C50.5145 145.579 50.3145 145.528 50.0958 145.528C49.7225 145.528 49.4131 145.651 49.1678 145.896C48.9225 146.136 48.7998 146.459 48.7998 146.864C48.7998 147.269 48.9198 147.595 49.1598 147.84C49.4051 148.08 49.7171 148.2 50.0958 148.2C50.3145 148.2 50.5145 148.152 50.6958 148.056C50.8825 147.955 51.0371 147.805 51.1598 147.608L51.9278 148.056C51.7625 148.376 51.5198 148.624 51.1998 148.8C50.8851 148.971 50.5198 149.056 50.1038 149.056ZM52.7922 144.728H53.7922V149H52.7922V144.728ZM53.2962 144.024C53.1149 144.024 52.9629 143.968 52.8402 143.856C52.7176 143.739 52.6562 143.595 52.6562 143.424C52.6562 143.253 52.7176 143.112 52.8402 143C52.9629 142.883 53.1149 142.824 53.2962 142.824C53.4776 142.824 53.6296 142.88 53.7522 142.992C53.8749 143.099 53.9362 143.235 53.9362 143.4C53.9362 143.576 53.8749 143.725 53.7522 143.848C53.6349 143.965 53.4829 144.024 53.2962 144.024ZM57.4727 144.68C57.8887 144.68 58.2594 144.771 58.5847 144.952C58.9154 145.133 59.1741 145.389 59.3607 145.72C59.5474 146.051 59.6407 146.432 59.6407 146.864C59.6407 147.296 59.5474 147.68 59.3607 148.016C59.1741 148.347 58.9154 148.603 58.5847 148.784C58.2594 148.965 57.8887 149.056 57.4727 149.056C56.8967 149.056 56.4407 148.864 56.1047 148.48V150.552H55.1047V144.728H56.0567V145.288C56.2221 145.085 56.4247 144.933 56.6647 144.832C56.9101 144.731 57.1794 144.68 57.4727 144.68ZM57.3607 148.2C57.7287 148.2 58.0301 148.077 58.2647 147.832C58.5047 147.587 58.6247 147.264 58.6247 146.864C58.6247 146.464 58.5047 146.141 58.2647 145.896C58.0301 145.651 57.7287 145.528 57.3607 145.528C57.1207 145.528 56.9047 145.584 56.7127 145.696C56.5207 145.803 56.3687 145.957 56.2567 146.16C56.1447 146.363 56.0887 146.597 56.0887 146.864C56.0887 147.131 56.1447 147.365 56.2567 147.568C56.3687 147.771 56.5207 147.928 56.7127 148.04C56.9047 148.147 57.1207 148.2 57.3607 148.2ZM60.5891 144.728H61.5891V149H60.5891V144.728ZM61.0931 144.024C60.9118 144.024 60.7598 143.968 60.6371 143.856C60.5144 143.739 60.4531 143.595 60.4531 143.424C60.4531 143.253 60.5144 143.112 60.6371 143C60.7598 142.883 60.9118 142.824 61.0931 142.824C61.2744 142.824 61.4264 142.88 61.5491 142.992C61.6718 143.099 61.7331 143.235 61.7331 143.4C61.7331 143.576 61.6718 143.725 61.5491 143.848C61.4318 143.965 61.2798 144.024 61.0931 144.024ZM66.9176 146.888C66.9176 146.957 66.9123 147.056 66.9016 147.184H63.5496C63.6083 147.499 63.7603 147.749 64.0056 147.936C64.2563 148.117 64.5656 148.208 64.9336 148.208C65.4029 148.208 65.7896 148.053 66.0936 147.744L66.6296 148.36C66.4376 148.589 66.1949 148.763 65.9016 148.88C65.6083 148.997 65.2776 149.056 64.9096 149.056C64.4403 149.056 64.0269 148.963 63.6696 148.776C63.3123 148.589 63.0349 148.331 62.8376 148C62.6456 147.664 62.5496 147.285 62.5496 146.864C62.5496 146.448 62.6429 146.075 62.8296 145.744C63.0216 145.408 63.2856 145.147 63.6216 144.96C63.9576 144.773 64.3363 144.68 64.7576 144.68C65.1736 144.68 65.5443 144.773 65.8696 144.96C66.2003 145.141 66.4563 145.4 66.6376 145.736C66.8243 146.067 66.9176 146.451 66.9176 146.888ZM64.7576 145.48C64.4376 145.48 64.1656 145.576 63.9416 145.768C63.7229 145.955 63.5896 146.205 63.5416 146.52H65.9656C65.9229 146.211 65.7923 145.96 65.5736 145.768C65.3549 145.576 65.0829 145.48 64.7576 145.48ZM70.3022 144.68C70.8408 144.68 71.2728 144.837 71.5982 145.152C71.9235 145.467 72.0862 145.933 72.0862 146.552V149H71.0862V146.68C71.0862 146.307 70.9982 146.027 70.8222 145.84C70.6462 145.648 70.3955 145.552 70.0702 145.552C69.7022 145.552 69.4115 145.664 69.1982 145.888C68.9848 146.107 68.8782 146.424 68.8782 146.84V149H67.8782V144.728H68.8302V145.28C68.9955 145.083 69.2035 144.933 69.4542 144.832C69.7048 144.731 69.9875 144.68 70.3022 144.68ZM75.9227 148.768C75.8054 148.864 75.6614 148.936 75.4907 148.984C75.3254 149.032 75.1494 149.056 74.9627 149.056C74.4934 149.056 74.1307 148.933 73.8747 148.688C73.6187 148.443 73.4907 148.085 73.4907 147.616V145.56H72.7867V144.76H73.4907V143.784H74.4907V144.76H75.6347V145.56H74.4907V147.592C74.4907 147.8 74.5414 147.96 74.6427 148.072C74.7441 148.179 74.8907 148.232 75.0827 148.232C75.3067 148.232 75.4934 148.173 75.6427 148.056L75.9227 148.768Z" fill="#606060"/>
<path d="M39.5847 173.12C38.9547 173.12 38.3697 172.99 37.8297 172.73C37.2897 172.46 36.8547 172.085 36.5247 171.605L37.3947 170.585C37.9747 171.415 38.7047 171.83 39.5847 171.83C40.1747 171.83 40.6197 171.65 40.9197 171.29C41.2297 170.93 41.3847 170.4 41.3847 169.7V163.805H37.5897V162.5H42.8697V169.625C42.8697 170.785 42.5897 171.66 42.0297 172.25C41.4797 172.83 40.6647 173.12 39.5847 173.12ZM48.6101 164.975C49.7101 164.975 50.5501 165.245 51.1301 165.785C51.7201 166.325 52.0151 167.13 52.0151 168.2V173H50.6501V171.95C50.4101 172.32 50.0651 172.605 49.6151 172.805C49.1751 172.995 48.6501 173.09 48.0401 173.09C47.1501 173.09 46.4351 172.875 45.8951 172.445C45.3651 172.015 45.1001 171.45 45.1001 170.75C45.1001 170.05 45.3551 169.49 45.8651 169.07C46.3751 168.64 47.1851 168.425 48.2951 168.425H50.5751V168.14C50.5751 167.52 50.3951 167.045 50.0351 166.715C49.6751 166.385 49.1451 166.22 48.4451 166.22C47.9751 166.22 47.5151 166.3 47.0651 166.46C46.6151 166.61 46.2351 166.815 45.9251 167.075L45.3251 165.995C45.7351 165.665 46.2251 165.415 46.7951 165.245C47.3651 165.065 47.9701 164.975 48.6101 164.975ZM48.2801 171.98C48.8301 171.98 49.3051 171.86 49.7051 171.62C50.1051 171.37 50.3951 171.02 50.5751 170.57V169.46H48.3551C47.1351 169.46 46.5251 169.87 46.5251 170.69C46.5251 171.09 46.6801 171.405 46.9901 171.635C47.3001 171.865 47.7301 171.98 48.2801 171.98ZM56.9599 173.09C56.3099 173.09 55.6849 173.005 55.0849 172.835C54.4849 172.655 54.0149 172.43 53.6749 172.16L54.2749 171.02C54.6249 171.27 55.0499 171.47 55.5499 171.62C56.0499 171.77 56.5549 171.845 57.0649 171.845C58.3249 171.845 58.9549 171.485 58.9549 170.765C58.9549 170.525 58.8699 170.335 58.6999 170.195C58.5299 170.055 58.3149 169.955 58.0549 169.895C57.8049 169.825 57.4449 169.75 56.9749 169.67C56.3349 169.57 55.8099 169.455 55.3999 169.325C54.9999 169.195 54.6549 168.975 54.3649 168.665C54.0749 168.355 53.9299 167.92 53.9299 167.36C53.9299 166.64 54.2299 166.065 54.8299 165.635C55.4299 165.195 56.2349 164.975 57.2449 164.975C57.7749 164.975 58.3049 165.04 58.8349 165.17C59.3649 165.3 59.7999 165.475 60.1399 165.695L59.5249 166.835C58.8749 166.415 58.1099 166.205 57.2299 166.205C56.6199 166.205 56.1549 166.305 55.8349 166.505C55.5149 166.705 55.3549 166.97 55.3549 167.3C55.3549 167.56 55.4449 167.765 55.6249 167.915C55.8049 168.065 56.0249 168.175 56.2849 168.245C56.5549 168.315 56.9299 168.395 57.4099 168.485C58.0499 168.595 58.5649 168.715 58.9549 168.845C59.3549 168.965 59.6949 169.175 59.9749 169.475C60.2549 169.775 60.3949 170.195 60.3949 170.735C60.3949 171.455 60.0849 172.03 59.4649 172.46C58.8549 172.88 58.0199 173.09 56.9599 173.09ZM65.5996 173.09C64.8096 173.09 64.0996 172.915 63.4696 172.565C62.8396 172.215 62.3446 171.735 61.9846 171.125C61.6346 170.505 61.4596 169.805 61.4596 169.025C61.4596 168.245 61.6346 167.55 61.9846 166.94C62.3446 166.32 62.8396 165.84 63.4696 165.5C64.0996 165.15 64.8096 164.975 65.5996 164.975C66.3896 164.975 67.0946 165.15 67.7146 165.5C68.3446 165.84 68.8346 166.32 69.1846 166.94C69.5446 167.55 69.7246 168.245 69.7246 169.025C69.7246 169.805 69.5446 170.505 69.1846 171.125C68.8346 171.735 68.3446 172.215 67.7146 172.565C67.0946 172.915 66.3896 173.09 65.5996 173.09ZM65.5996 171.83C66.1096 171.83 66.5646 171.715 66.9646 171.485C67.3746 171.245 67.6946 170.915 67.9246 170.495C68.1546 170.065 68.2696 169.575 68.2696 169.025C68.2696 168.475 68.1546 167.99 67.9246 167.57C67.6946 167.14 67.3746 166.81 66.9646 166.58C66.5646 166.35 66.1096 166.235 65.5996 166.235C65.0896 166.235 64.6296 166.35 64.2196 166.58C63.8196 166.81 63.4996 167.14 63.2596 167.57C63.0296 167.99 62.9146 168.475 62.9146 169.025C62.9146 169.575 63.0296 170.065 63.2596 170.495C63.4996 170.915 63.8196 171.245 64.2196 171.485C64.6296 171.715 65.0896 171.83 65.5996 171.83ZM75.9611 164.975C76.9711 164.975 77.7711 165.27 78.3611 165.86C78.9611 166.44 79.2611 167.295 79.2611 168.425V173H77.8211V168.59C77.8211 167.82 77.6361 167.24 77.2661 166.85C76.8961 166.46 76.3661 166.265 75.6761 166.265C74.8961 166.265 74.2811 166.495 73.8311 166.955C73.3811 167.405 73.1561 168.055 73.1561 168.905V173H71.7161V165.05H73.0961V166.25C73.3861 165.84 73.7761 165.525 74.2661 165.305C74.7661 165.085 75.3311 164.975 75.9611 164.975ZM95.1944 162.5V173H93.6944V168.32H87.6644V173H86.1644V162.5H87.6644V167.015H93.6944V162.5H95.1944ZM101.022 164.975C102.122 164.975 102.962 165.245 103.542 165.785C104.132 166.325 104.427 167.13 104.427 168.2V173H103.062V171.95C102.822 172.32 102.477 172.605 102.027 172.805C101.587 172.995 101.062 173.09 100.452 173.09C99.5622 173.09 98.8472 172.875 98.3072 172.445C97.7772 172.015 97.5122 171.45 97.5122 170.75C97.5122 170.05 97.7672 169.49 98.2772 169.07C98.7872 168.64 99.5972 168.425 100.707 168.425H102.987V168.14C102.987 167.52 102.807 167.045 102.447 166.715C102.087 166.385 101.557 166.22 100.857 166.22C100.387 166.22 99.9272 166.3 99.4772 166.46C99.0272 166.61 98.6472 166.815 98.3372 167.075L97.7372 165.995C98.1472 165.665 98.6372 165.415 99.2072 165.245C99.7772 165.065 100.382 164.975 101.022 164.975ZM100.692 171.98C101.242 171.98 101.717 171.86 102.117 171.62C102.517 171.37 102.807 171.02 102.987 170.57V169.46H100.767C99.5472 169.46 98.9372 169.87 98.9372 170.69C98.9372 171.09 99.0922 171.405 99.4022 171.635C99.7122 171.865 100.142 171.98 100.692 171.98ZM109.372 173.09C108.722 173.09 108.097 173.005 107.497 172.835C106.897 172.655 106.427 172.43 106.087 172.16L106.687 171.02C107.037 171.27 107.462 171.47 107.962 171.62C108.462 171.77 108.967 171.845 109.477 171.845C110.737 171.845 111.367 171.485 111.367 170.765C111.367 170.525 111.282 170.335 111.112 170.195C110.942 170.055 110.727 169.955 110.467 169.895C110.217 169.825 109.857 169.75 109.387 169.67C108.747 169.57 108.222 169.455 107.812 169.325C107.412 169.195 107.067 168.975 106.777 168.665C106.487 168.355 106.342 167.92 106.342 167.36C106.342 166.64 106.642 166.065 107.242 165.635C107.842 165.195 108.647 164.975 109.657 164.975C110.187 164.975 110.717 165.04 111.247 165.17C111.777 165.3 112.212 165.475 112.552 165.695L111.937 166.835C111.287 166.415 110.522 166.205 109.642 166.205C109.032 166.205 108.567 166.305 108.247 166.505C107.927 166.705 107.767 166.97 107.767 167.3C107.767 167.56 107.857 167.765 108.037 167.915C108.217 168.065 108.437 168.175 108.697 168.245C108.967 168.315 109.342 168.395 109.822 168.485C110.462 168.595 110.977 168.715 111.367 168.845C111.767 168.965 112.107 169.175 112.387 169.475C112.667 169.775 112.807 170.195 112.807 170.735C112.807 171.455 112.497 172.03 111.877 172.46C111.267 172.88 110.432 173.09 109.372 173.09ZM117.502 164.975C118.602 164.975 119.442 165.245 120.022 165.785C120.612 166.325 120.907 167.13 120.907 168.2V173H119.542V171.95C119.302 172.32 118.957 172.605 118.507 172.805C118.067 172.995 117.542 173.09 116.932 173.09C116.042 173.09 115.327 172.875 114.787 172.445C114.257 172.015 113.992 171.45 113.992 170.75C113.992 170.05 114.247 169.49 114.757 169.07C115.267 168.64 116.077 168.425 117.187 168.425H119.467V168.14C119.467 167.52 119.287 167.045 118.927 166.715C118.567 166.385 118.037 166.22 117.337 166.22C116.867 166.22 116.407 166.3 115.957 166.46C115.507 166.61 115.127 166.815 114.817 167.075L114.217 165.995C114.627 165.665 115.117 165.415 115.687 165.245C116.257 165.065 116.862 164.975 117.502 164.975ZM117.172 171.98C117.722 171.98 118.197 171.86 118.597 171.62C118.997 171.37 119.287 171.02 119.467 170.57V169.46H117.247C116.027 169.46 115.417 169.87 115.417 170.69C115.417 171.09 115.572 171.405 115.882 171.635C116.192 171.865 116.622 171.98 117.172 171.98ZM127.817 164.975C128.827 164.975 129.627 165.27 130.217 165.86C130.817 166.44 131.117 167.295 131.117 168.425V173H129.677V168.59C129.677 167.82 129.492 167.24 129.122 166.85C128.752 166.46 128.222 166.265 127.532 166.265C126.752 166.265 126.137 166.495 125.687 166.955C125.237 167.405 125.012 168.055 125.012 168.905V173H123.572V165.05H124.952V166.25C125.242 165.84 125.632 165.525 126.122 165.305C126.622 165.085 127.187 164.975 127.817 164.975Z" fill="black"/>
<rect x="199.91" y="142" width="100" height="34" rx="10" fill="#0D0D73"/>
<path d="M228.642 164.12C227.994 164.12 227.366 164.028 226.758 163.844C226.158 163.66 225.682 163.416 225.33 163.112L225.87 161.9C226.214 162.172 226.634 162.396 227.13 162.572C227.634 162.74 228.138 162.824 228.642 162.824C229.266 162.824 229.73 162.724 230.034 162.524C230.346 162.324 230.502 162.06 230.502 161.732C230.502 161.492 230.414 161.296 230.238 161.144C230.07 160.984 229.854 160.86 229.59 160.772C229.326 160.684 228.966 160.584 228.51 160.472C227.87 160.32 227.35 160.168 226.95 160.016C226.558 159.864 226.218 159.628 225.93 159.308C225.65 158.98 225.51 158.54 225.51 157.988C225.51 157.524 225.634 157.104 225.882 156.728C226.138 156.344 226.518 156.04 227.022 155.816C227.534 155.592 228.158 155.48 228.894 155.48C229.406 155.48 229.91 155.544 230.406 155.672C230.902 155.8 231.33 155.984 231.69 156.224L231.198 157.436C230.83 157.22 230.446 157.056 230.046 156.944C229.646 156.832 229.258 156.776 228.882 156.776C228.266 156.776 227.806 156.88 227.502 157.088C227.206 157.296 227.058 157.572 227.058 157.916C227.058 158.156 227.142 158.352 227.31 158.504C227.486 158.656 227.706 158.776 227.97 158.864C228.234 158.952 228.594 159.052 229.05 159.164C229.674 159.308 230.186 159.46 230.586 159.62C230.986 159.772 231.326 160.008 231.606 160.328C231.894 160.648 232.038 161.08 232.038 161.624C232.038 162.088 231.91 162.508 231.654 162.884C231.406 163.26 231.026 163.56 230.514 163.784C230.002 164.008 229.378 164.12 228.642 164.12ZM239.465 160.832C239.465 160.936 239.457 161.084 239.441 161.276H234.413C234.501 161.748 234.729 162.124 235.097 162.404C235.473 162.676 235.937 162.812 236.489 162.812C237.193 162.812 237.773 162.58 238.229 162.116L239.033 163.04C238.745 163.384 238.381 163.644 237.941 163.82C237.501 163.996 237.005 164.084 236.453 164.084C235.749 164.084 235.129 163.944 234.593 163.664C234.057 163.384 233.641 162.996 233.345 162.5C233.057 161.996 232.913 161.428 232.913 160.796C232.913 160.172 233.053 159.612 233.333 159.116C233.621 158.612 234.017 158.22 234.521 157.94C235.025 157.66 235.593 157.52 236.225 157.52C236.849 157.52 237.405 157.66 237.893 157.94C238.389 158.212 238.773 158.6 239.045 159.104C239.325 159.6 239.465 160.176 239.465 160.832ZM236.225 158.72C235.745 158.72 235.337 158.864 235.001 159.152C234.673 159.432 234.473 159.808 234.401 160.28H238.037C237.973 159.816 237.777 159.44 237.449 159.152C237.121 158.864 236.713 158.72 236.225 158.72ZM244.541 157.52C245.349 157.52 245.997 157.756 246.485 158.228C246.973 158.7 247.217 159.4 247.217 160.328V164H245.717V160.52C245.717 159.96 245.585 159.54 245.321 159.26C245.057 158.972 244.681 158.828 244.193 158.828C243.641 158.828 243.205 158.996 242.885 159.332C242.565 159.66 242.405 160.136 242.405 160.76V164H240.905V157.592H242.333V158.42C242.581 158.124 242.893 157.9 243.269 157.748C243.645 157.596 244.069 157.52 244.541 157.52ZM255.455 155.096V164H254.015V163.172C253.767 163.476 253.459 163.704 253.091 163.856C252.731 164.008 252.331 164.084 251.891 164.084C251.275 164.084 250.719 163.948 250.223 163.676C249.735 163.404 249.351 163.02 249.071 162.524C248.791 162.02 248.651 161.444 248.651 160.796C248.651 160.148 248.791 159.576 249.071 159.08C249.351 158.584 249.735 158.2 250.223 157.928C250.719 157.656 251.275 157.52 251.891 157.52C252.315 157.52 252.703 157.592 253.055 157.736C253.407 157.88 253.707 158.096 253.955 158.384V155.096H255.455ZM252.071 162.8C252.431 162.8 252.755 162.72 253.043 162.56C253.331 162.392 253.559 162.156 253.727 161.852C253.895 161.548 253.979 161.196 253.979 160.796C253.979 160.396 253.895 160.044 253.727 159.74C253.559 159.436 253.331 159.204 253.043 159.044C252.755 158.876 252.431 158.792 252.071 158.792C251.711 158.792 251.387 158.876 251.099 159.044C250.811 159.204 250.583 159.436 250.415 159.74C250.247 160.044 250.163 160.396 250.163 160.796C250.163 161.196 250.247 161.548 250.415 161.852C250.583 162.156 250.811 162.392 251.099 162.56C251.387 162.72 251.711 162.8 252.071 162.8Z" fill="white"/>
<path d="M275.91 155L270.96 159.95" stroke="white" stroke-linecap="round" stroke-linejoin="round"/>
<path d="M275.91 155L272.76 164L270.96 159.95L266.91 158.15L275.91 155Z" stroke="white" stroke-linecap="round" stroke-linejoin="round"/>
</svg>
